<svg id="Layer_1" data-name="Layer 1" xmlns="http://www.w3.org/2000/svg" viewBox="0 0 338.87 309.77"><defs><style>.cls-1{fill:#fee5a2;}.cls-2,.cls-9{fill:#ff9750;}.cls-2{opacity:0.6;}.cls-3{fill:#ff9784;}.cls-4{fill:#36b0bb;}.cls-5{fill:#fff;}.cls-6{fill:#27969b;}.cls-7{fill:#49151a;}.cls-8{fill:#f47f31;}.cls-10{fill:#ffc5b3;}.cls-11{fill:#c18e6b;}.cls-12{fill:#a87a5b;}.cls-13{fill:#6e4243;}.cls-14{fill:#915d61;}.cls-15{fill:#512e30;}.cls-16{fill:#ffa08d;}.cls-17{fill:#6d1d28;}.cls-18{fill:#ff5252;}.cls-19{fill:#b57c83;}.cls-20{fill:#f9bbb7;}.cls-21{fill:#f23b3b;}.cls-22{fill:#d32424;}.cls-23{fill:#ed8037;}.cls-24{fill:#f7c9b2;}.cls-25{fill:#ffe0ce;}.cls-26{fill:#ff9f8c;}.cls-27{fill:#ffc4b2;}.cls-28{fill:#dda992;}.cls-29{fill:#ff7b7b;opacity:0.5;}</style></defs><path class="cls-1" d="M328,147.64a142.94,142.94,0,0,0-26-36.75A146.29,146.29,0,0,0,242,75c-10.85-3.37-30.49-5.85-45.45-1.41-16,4.75-29.37,15-43.54,23.35-19.52,11.5-33.49,17.43-49.42,22.37C74.1,128.4,19,156.56,6.2,213.07c-3.47,15.36-5.9,50.2,22.23,79.84,11.29,11.91,29.26,16.25,45.36,19a115.07,115.07,0,0,0,49.74-2.22c16.51-4.5,31.84-12.37,48.17-17.37,17.84-5.45,34.76-4.52,52.88-1.06,16.83,3.22,33.84,7.09,51,4.48,5.81-.88,29.3-5.59,47.14-25.86,17.42-19.79,19-42.6,20-56.06C345,182.66,333.75,159.21,328,147.64Z" transform="translate(-4.15 -3.88)"/><path class="cls-2" d="M62.52,235.33c-5.31,5.25-20.07,11.72-21.86,20.53-1.14,5.61,4.59,12.63,14.44,11.57s20.11-.61,31.31,0,29.78-6.38,30.58-13.62c.57-5.08-6.55-15.19-17.57-20.94S70.69,227.25,62.52,235.33Z" transform="translate(-4.15 -3.88)"/><path class="cls-2" d="M128.2,135.7c-9-4.93-20.85-6.36-28-2s-5.28,9.65,2.25,14.2,21.07,9.67,29.45,4.19S135.47,139.7,128.2,135.7Z" transform="translate(-4.15 -3.88)"/><path class="cls-2" d="M195.39,140.11l-.53-.31c-3.38-2-8.55-2.17-11.49-.47l-12.06,7c-2.93,1.7-2.56,4.68.82,6.64l.53.3c3.39,2,8.55,2.17,11.49.47l12.06-7C199.14,145.05,198.77,142.06,195.39,140.11Z" transform="translate(-4.15 -3.88)"/><path class="cls-2" d="M170.57,101.68c-5.86.67-14.15,9.24-6.48,13.61s21.09,5.23,30.07,9.73,21.9,10,30.41,15.13a50.33,50.33,0,0,0,22.25,6.94c6.54.24,20.58,3.81,20.58,3.81a40.75,40.75,0,0,1-15.55,4.34c-8.49.47-9.17,4.6-9.17,4.6s10.82,3.26,19.07,3.35,16-5.1,17-9.91-5.06-10-12.21-13.22-20.19-9.66-24.81-11.93S229.36,116,212.31,112.58,170.57,101.68,170.57,101.68Z" transform="translate(-4.15 -3.88)"/><path class="cls-3" d="M207.24,56.2c.4,1.08,3.11,6.83,3.11,6.83s6.1-.58,9.71-.82c.67,1.47,1.85,6,2.07,6.72l0,.11c-2.2.21-4.57.44-6.06.7-3.49.6-7.51.93-8.27.57-1.59-.75-2.85-1.71-5.21-5-1.39-1.91-3.8-4.88-3.8-4.88l2.51-4.24S206.59,54.43,207.24,56.2Z" transform="translate(-4.15 -3.88)"/><path class="cls-4" d="M169.94,96.81A5.85,5.85,0,0,1,173.53,99v6s-3.92,1.6-3.22,2.31c3.22,3.29,2.44,4,1.64,4.57a4.22,4.22,0,0,1-3.72.51c-2.76-.7-2.72-1.84-3-3.13a14.44,14.44,0,0,1,.54-8.65C166.55,98.35,167.79,96.44,169.94,96.81Z" transform="translate(-4.15 -3.88)"/><path class="cls-5" d="M168.55,102.35l2,6.06s-.53.13-1.4.41-1.24-.94-1.73-3.19A3.14,3.14,0,0,1,168.55,102.35Z" transform="translate(-4.15 -3.88)"/><path class="cls-4" d="M200.24,102.36c1-.1.33,3.13,1.91,3,1.89-.18,4.26-1.88,5.57-1.48,0,0,.37.41,1,1,.95,1,2.45,2.52,3.88,3.86,1.6,1.5,2.5,2.93,4.18,4.15,1.46,1-.63,2.36-3,3.09a8.25,8.25,0,0,1-4.15-.19c-1.72-.47-2-1.43-4.2-3.49l-.12-.12c-1.1-1-3.09-1.79-4.37-2.56a7.36,7.36,0,0,1-2.33-2.57S198.71,102.51,200.24,102.36Z" transform="translate(-4.15 -3.88)"/><path class="cls-5" d="M207,103.82a28.06,28.06,0,0,1,3.48,4c1,1.24-.14,2-1.39.78-1.41-1.39-3.7-4.33-3.7-4.33S206.61,103.7,207,103.82Z" transform="translate(-4.15 -3.88)"/><path class="cls-6" d="M200.3,109.15c.85.62,2.88,1.25,5,2.77s3.4,3.55,5.41,3.73,3.1-.22,4.06-1.26a3,3,0,0,1,2.4-.84s.5.64-.87,1.93-4.06,1.62-6.46,1.15-3.81-3-4.52-3.56a13.65,13.65,0,0,0-3.15-1.7,6.25,6.25,0,0,1-2.68-1.53,3.83,3.83,0,0,1-1.33-2.26,6.8,6.8,0,0,1,.49-2S199.19,108.35,200.3,109.15Z" transform="translate(-4.15 -3.88)"/><path class="cls-3" d="M207.24,105.19a4.85,4.85,0,0,1,1.18-.58l.67.69a4.69,4.69,0,0,0-1.43.76c-.47.44-1.45,1.59-1.45,1.59l-.81-.63A11.68,11.68,0,0,1,207.24,105.19Z" transform="translate(-4.15 -3.88)"/><path class="cls-6" d="M208.68,106.71a4.41,4.41,0,0,1,1.18-.58l.67.69a4.58,4.58,0,0,0-1.43.75c-.47.44-1.45,1.6-1.45,1.6l-.81-.63A11.68,11.68,0,0,1,208.68,106.71Z" transform="translate(-4.15 -3.88)"/><path class="cls-7" d="M193.57,85.11s6.24,17.24,8.08,27.36-9.39,8-9.39,8-8.34-9.37-9.2-10.56-6.6-13.72-7.63-18.6,1.68-9.56,1.68-9.56Z" transform="translate(-4.15 -3.88)"/><path class="cls-7" d="M199.72,77.94s16,4.08,19.21,5.54,1.55,7.32-1.65,11.69-2.58,2.73-4.51,5.1c-1.07,1.3-.9,1.43-1.88,4.34-1.35-.09-4.29,5-9.69,3.51-2.2-.64-3.29-3.38-2.55-5.82a28.66,28.66,0,0,1,3.2-5.85c-2.07.15-6.9,1.91-9.37,1.75.58-1.71,1.09-3,1.09-3A10.21,10.21,0,0,1,187.66,93C184.57,90.77,199.72,77.94,199.72,77.94Z" transform="translate(-4.15 -3.88)"/><path class="cls-3" d="M194.22,40.71l5.41,5.43s1.74,6.4,1.44,8.54-4.45,6.12-4.45,6.12-4.59,1.84-8.07-1.22-2.33-13.44-2.33-13.44Z" transform="translate(-4.15 -3.88)"/><path class="cls-8" d="M200.13,41.18c.69.77,5.36-2.43,7.3,3.28s3.89,13.12,3.89,13.12S204,61.63,201.42,61l-2.6-.59,3-12.23L198.65,44Z" transform="translate(-4.15 -3.88)"/><path class="cls-9" d="M177.58,55.6a18.12,18.12,0,0,1,6.1-9.46,46.64,46.64,0,0,1,10.85-5.43l-.86,2.34-4.94,2.75s4.61,14.54,8.77,11.32A6.39,6.39,0,0,0,200,49.81l2.9-3.86A28.22,28.22,0,0,1,204,55.24c-.38,4.58-5.47,14.31-3.75,17.81s1,5.27,1,5.27-6.48,7.26-12.67,7.48c-7.42.27-13,.08-13,.08s-.76-4.13,1.32-7.17C176.2,71.82,176.17,61.38,177.58,55.6Z" transform="translate(-4.15 -3.88)"/><path class="cls-8" d="M197.5,73.75a15.66,15.66,0,0,1-6.32,5.67,16.63,16.63,0,0,1-8.4,1.14,36.73,36.73,0,0,0,7.46-2.9C193,76,197.5,73.75,197.5,73.75Z" transform="translate(-4.15 -3.88)"/><path class="cls-8" d="M195.76,67.91s-3.67,5.51-8.62,7.68a41.62,41.62,0,0,1-7.44,2.67A80.47,80.47,0,0,1,186,73.1,60.4,60.4,0,0,1,195.76,67.91Z" transform="translate(-4.15 -3.88)"/><path class="cls-8" d="M199.72,48.83c.31,0,2.13-.62,2.13-.62a21,21,0,0,1,.72,3.59,36.7,36.7,0,0,1-.36,6.16,3.62,3.62,0,0,0-2-.64,19.46,19.46,0,0,1-2.74-.2,7.79,7.79,0,0,0,2-4.61C199.49,50,199.41,48.88,199.72,48.83Z" transform="translate(-4.15 -3.88)"/><path class="cls-10" d="M195.49,30.43a7.73,7.73,0,0,1,12.07,4.11c2.58,7.31-4,16.45-7.57,14.89-2-.86-6.12-4-7.29-7.8C191.38,37.29,193.28,32.12,195.49,30.43Z" transform="translate(-4.15 -3.88)"/><path class="cls-7" d="M200.2,27.17c6.17.69,8.64,6.42,7.94,9.71-.78-2.38-3-3.06-6.06-2.3a8,8,0,0,0-5.85,6.28s-1.31-2.73-2.54-1.93c-.91.58-1,2.7-1,2.7A10.22,10.22,0,0,1,191.43,34C192,31.32,195.43,26.63,200.2,27.17Z" transform="translate(-4.15 -3.88)"/><path class="cls-10" d="M171.81,60.51c2.95-8.59,8.43-9.48,8.43-9.48l4,10.88S180.72,66.32,180,68c-1.41,3.41-5.27,6.24-5.27,6.24s3.23-.7,6.63,2.72a26.42,26.42,0,0,0,5.79,4.24c1.78.72,5.17.83,6.91.86,2.16,0,2.28,1.13.84,1.29a10.26,10.26,0,0,0-3.22.91s3.24,3.87,5,4.92,2.73,4.46,1,4.32c-2.52-.2-7.26-2-9.05-3.59-2-1.77-2.75-4.46-4-5a39.6,39.6,0,0,0-8.06-2.65c-3.21-.77-5.76-2.57-8.57-3.44-1.57-.48-1.12-3-.82-6.54C167.48,69.13,170.18,65.25,171.81,60.51Z" transform="translate(-4.15 -3.88)"/><path class="cls-8" d="M181.61,48.09c2.39-.88,5.12,1.52,5.5,6.38.31,3.9-1.89,8.51-2.76,10.36a59.32,59.32,0,0,1-3.66,5.8s-6.25-1.26-7.8-2.56a13.66,13.66,0,0,1-3.65-4.75S173.94,50.91,181.61,48.09Z" transform="translate(-4.15 -3.88)"/><path class="cls-7" d="M173,96.81a20.36,20.36,0,0,1,4.87,2.64c3.68,3.08,11.69,8.54,11.69,8.54l7.22,12.48s-3.19,1.22-9.41-.82-18.42-12-18.42-12a11.24,11.24,0,0,1-.77-5.3A7.29,7.29,0,0,1,173,96.81Z" transform="translate(-4.15 -3.88)"/><path class="cls-8" d="M192.7,41.63l.66,1.59s-3.18,1.34-2.18,3.29,2.63,5,3.93,7.13a36.61,36.61,0,0,0,2.39,3.48,7.5,7.5,0,0,1-2.72,1.49,12.29,12.29,0,0,0-2.78,2S187.43,49,188.12,46.42,192.7,41.63,192.7,41.63Z" transform="translate(-4.15 -3.88)"/><path class="cls-6" d="M170.52,96.93s-.53,1.39-1.72,1.55a3.08,3.08,0,0,0-2.31,1.94,11.74,11.74,0,0,0-1.27,5.71c.15,2.4,0,4.18,1.27,5.08a3.37,3.37,0,0,0,4,0,2.63,2.63,0,0,1,2.35-.49s.78,1.54-1.31,2.51-5.25-.4-6.35-2.92a9.76,9.76,0,0,1-.5-8C165.82,99,166.71,95.54,170.52,96.93Z" transform="translate(-4.15 -3.88)"/><path class="cls-11" d="M215.78,116.2c2.6-.85,3.75,2.06,3.75-.75V98a62.47,62.47,0,0,1,1.6-15c1.21-5.22,0-13.33,0-13.33a25,25,0,0,1,13.8,3.64,13.07,13.07,0,0,0-5.46,5.42c-1.74,4-3.19,9.27-2.69,12.38a8.19,8.19,0,0,0,3.47-1.67s-4.19,8.41-2.59,10.47a4,4,0,0,1,2.63-2s-1.24,4.94.2,7a5.17,5.17,0,0,1,1.79-3s-.6,5.26,1.43,9.09a26.93,26.93,0,0,0,4.56,6.38s-1.69,4.67-1.17,8.49c.34,2.59,4.15,7.3,8.45,10.17s4.07,8.53,4.07,8.53c-4.85.76-8.74-1.58-11.05-3.16a15.24,15.24,0,0,1-3.24-2.5,23,23,0,0,1-2.06-3,12.72,12.72,0,0,0,.89,2.69c-1,0-2.68-.73-5.28-2.7a9.64,9.64,0,0,0-5.75-2.46,5,5,0,0,1-3.12-1.21,6,6,0,0,1,1.12-2.36c2-2.8,10,2.41,10,2.41s-2.79-2.6-4-8.84c-1-5,1.46-6.53,2.46-6.94a2.83,2.83,0,0,0,.41-.14c1.36-.71,4.21.63,4.21.63a4.87,4.87,0,0,0-2.39-1.65c-1.35-.25-2.45-2-2.45-2a3,3,0,0,0,1.52.15,5.18,5.18,0,0,0,1.35-.78,2.63,2.63,0,0,1-2-.24c-1.08-.52-2.73-3.56-2.73-3.56a4.78,4.78,0,0,0,1.8.42,2.81,2.81,0,0,0,1.67-.92,3.13,3.13,0,0,1-2.63-.54,3.46,3.46,0,0,1-1.71-3.5,2.4,2.4,0,0,0,1.11.24,14.51,14.51,0,0,1-2.58-3.53c-.65-1.12-.64-4.14-.64-4.14a10.09,10.09,0,0,0-.27,5.41c.62,3.27,1.43,4,1.43,4s-.91,9.27-1.1,12.67c0,.38,0,.9-.06,1.44a4,4,0,0,1-1,.63,5.25,5.25,0,0,1-3.17.49,8.86,8.86,0,0,1-3.15-1.7c-.7-.56-1.51-1.57-2.29-1.63a1.1,1.1,0,0,0-1.06.74A2.37,2.37,0,0,1,215.78,116.2Z" transform="translate(-4.15 -3.88)"/><path class="cls-12" d="M215,118.29c.78.06,1.59,1.07,2.29,1.63a8.86,8.86,0,0,0,3.15,1.7,5.25,5.25,0,0,0,3.17-.49,4,4,0,0,0,1-.63c-.11,1.26-.51,2.68-2.28,3s-4-.79-6.07-1.59a4,4,0,0,1-2.31-2.84A1.1,1.1,0,0,1,215,118.29Z" transform="translate(-4.15 -3.88)"/><path class="cls-12" d="M223.34,132.31a32.2,32.2,0,0,1,5.54,3.61c2.6,2,4.24,2.71,5.28,2.7a12.72,12.72,0,0,1-.89-2.69,23,23,0,0,0,2.06,3,15.24,15.24,0,0,0,3.24,2.5c-2.38,2-8.59-2.56-13.91-4.56-3.73-1.41-4.94-2.86-4.65-4.58A3.35,3.35,0,0,1,223.34,132.31Z" transform="translate(-4.15 -3.88)"/><path class="cls-12" d="M225.21,101.07a14.51,14.51,0,0,0,2.58,3.53,2.4,2.4,0,0,1-1.11-.24,3.46,3.46,0,0,0,1.71,3.5,3.13,3.13,0,0,0,2.63.54,2.81,2.81,0,0,1-1.67.92,4.78,4.78,0,0,1-1.8-.42s1.65,3,2.73,3.56a2.63,2.63,0,0,0,2,.24,5.18,5.18,0,0,1-1.35.78,3,3,0,0,1-1.52-.15s1.1,1.78,2.45,2a4.87,4.87,0,0,1,2.39,1.65s-2.85-1.34-4.21-.63a7.93,7.93,0,0,1-2.6-3.68,38.48,38.48,0,0,1-1.71-6.31s-.81-.78-1.43-4a10.09,10.09,0,0,1,.27-5.41S224.56,100,225.21,101.07Z" transform="translate(-4.15 -3.88)"/><path class="cls-13" d="M234.93,73.26a17.68,17.68,0,0,1,2.44,1.88c6.7,6.18,6.63,12.24,9.44,20.35s10.78,15.51,13.24,32c1.59,10.59-3.87,14.32-5.61,15.32a14,14,0,0,1-4.82,1.74s.24-5.66-4.07-8.53-8.11-7.58-8.45-10.17c-.52-3.82,1.17-8.49,1.17-8.49a26.93,26.93,0,0,1-4.56-6.38c-2-3.83-1.43-9.09-1.43-9.09a5.17,5.17,0,0,0-1.79,3c-1.44-2.1-.2-7-.2-7a4,4,0,0,0-2.63,2c-1.6-2.06,2.59-10.47,2.59-10.47a8.19,8.19,0,0,1-3.47,1.67c-.5-3.11.95-8.37,2.69-12.38A13.07,13.07,0,0,1,234.93,73.26Z" transform="translate(-4.15 -3.88)"/><path class="cls-11" d="M214.12,59.34c2,.27,5.76,1.16,7.17,1.51s3.5-2.69,8.06-.82a8.36,8.36,0,0,1,1.84,1.07,14.23,14.23,0,0,0-3.75-.48,21.84,21.84,0,0,0-2.75,5.44,9.21,9.21,0,0,0-.62,5.15c2.22-.24,3.55-2.94,3.55-2.94s.53,4.07.53,5,0,5.63-1.25,8a5.19,5.19,0,0,0-1-2.63A14.86,14.86,0,0,0,223.37,81c-1.08-.48-2-2.42-2.45-3.76-.68.4-.9,1.66-1.08,2.15-1.28-1-.63-4.21-1.2-5.26-1.39-2.55-5-5.09-6.44-8.19S210.56,58.88,214.12,59.34Z" transform="translate(-4.15 -3.88)"/><path class="cls-13" d="M227.44,60.62a14.23,14.23,0,0,1,3.75.48c3.2,2.36,4.58,6.58,5.17,9.08.7,2.95,4.59,6.89,4.59,6.89a2.77,2.77,0,0,1-2.68-.36,3.06,3.06,0,0,1-.91,2.93,3.82,3.82,0,0,0-1.79-2c-.24,1.48-.36,2.38.06,3.13-.57.11-1.92-.69-2.87-2.31-.24,1.32-1.3,2.83-1.86,2.81a4.93,4.93,0,0,0-1.43-2.63c-.46,1.13-1.28,2.47-2.57,2.63,1.3-2.42,1.25-7.14,1.25-8s-.53-5-.53-5-1.33,2.7-3.55,2.94a9.21,9.21,0,0,1,.62-5.15A21.84,21.84,0,0,1,227.44,60.62Z" transform="translate(-4.15 -3.88)"/><path class="cls-12" d="M239.9,137.07a10.15,10.15,0,0,0,2.78,1.1,4.16,4.16,0,0,1-3.58-.45,8.21,8.21,0,0,1-2.43-3.49A13.06,13.06,0,0,0,239.9,137.07Z" transform="translate(-4.15 -3.88)"/><path class="cls-12" d="M240.08,135.11s-.87,1.68-3.41,0a3.69,3.69,0,0,1-1.61-2.52,11.37,11.37,0,0,0,2.69,1.75A8.9,8.9,0,0,0,240.08,135.11Z" transform="translate(-4.15 -3.88)"/><path class="cls-12" d="M222.65,129.83a3.1,3.1,0,0,1,.93.61l-2.85.08.4-.63A2.87,2.87,0,0,1,222.65,129.83Z" transform="translate(-4.15 -3.88)"/><path class="cls-12" d="M214.8,116.68a3.23,3.23,0,0,1,1.16.18,1.37,1.37,0,0,1,.71.56,11,11,0,0,0-1.67-.17,2.87,2.87,0,0,0-.88.17S214.12,117.05,214.8,116.68Z" transform="translate(-4.15 -3.88)"/><path class="cls-11" d="M252.73,155.24a4,4,0,0,0-3.11-.88,9.54,9.54,0,0,0-1.63.23c3.81-1.82,8.86-2,10.35-2h.44a7.63,7.63,0,0,0,4.71-1.66,34.2,34.2,0,0,1-6.19.05c-2.2-.41-5.75.65-5.75.65,2.22-2.3,7.08-1.84,9.46-2.69h0a4.69,4.69,0,0,0,3-1.87c.63-1,1.52-2.39.69-4.1-.57-1.17-4-3.12-6.39-4.6a14.41,14.41,0,0,1-3.38-2.95,2.39,2.39,0,0,1,1.6-1.93c.84-.33,1.66,1,3.95,2,2.7,1.28,6.95,2.27,10.43,4,6.42,3.21,7.91,10.43,6.07,14.74-.9,2.12-3.65,3.46-3.65,3.46s1-2.92-.82-4.74a10.53,10.53,0,0,1-3.67,6.27c-1.47,1.39-3.4,1.72-5.74,1.25,3.23-1.16,3.86-3.4,3.86-3.4a5,5,0,0,0,.41-1.89,14.09,14.09,0,0,0,0-2s-.41,2.25-3.86,3.55-8.74.85-11.35,0a8.15,8.15,0,0,0-4.39-.36,8.37,8.37,0,0,1,3-1Z" transform="translate(-4.15 -3.88)"/><path class="cls-12" d="M258.33,138.39c2.36,1.48,5.82,3.43,6.39,4.6.83,1.71-.06,3.07-.69,4.1a4.69,4.69,0,0,1-3,1.87h0a3.2,3.2,0,0,0,.59-.27c1.56-.93,4-5.48-2.06-8.37-3.61-1.73-4.73-3.53-4.59-4.88A14.41,14.41,0,0,0,258.33,138.39Z" transform="translate(-4.15 -3.88)"/><path class="cls-12" d="M257.3,151a34.2,34.2,0,0,0,6.19-.05,7.63,7.63,0,0,1-4.71,1.66,17.75,17.75,0,0,0-7.23-1S255.1,150.59,257.3,151Z" transform="translate(-4.15 -3.88)"/><path class="cls-12" d="M248,154.59a9.54,9.54,0,0,1,1.63-.23,4,4,0,0,1,3.11.88l-2,.22a8.37,8.37,0,0,0-3,1,8.15,8.15,0,0,1,4.39.36c2.61.85,7.9,1.3,11.35,0s3.86-3.55,3.86-3.55a14.09,14.09,0,0,1,0,2,5,5,0,0,1-.41,1.89l-.48.31a17.29,17.29,0,0,1-9.32,2.4c-5.18-.14-8.05-2.54-12.89-2.09A8.22,8.22,0,0,1,248,154.59Z" transform="translate(-4.15 -3.88)"/><path class="cls-14" d="M245.8,114.32a16.55,16.55,0,0,1-.76,2,13.13,13.13,0,0,0-.67,1.9s-.9-1.43-.36-2.39A4.57,4.57,0,0,1,245.8,114.32Z" transform="translate(-4.15 -3.88)"/><path class="cls-14" d="M234.77,89.86A7.71,7.71,0,0,1,234,91.6c-.42.53-1,1.13-1,1.13a2.05,2.05,0,0,1,.53-1.67A9.85,9.85,0,0,1,234.77,89.86Z" transform="translate(-4.15 -3.88)"/><path class="cls-14" d="M252,120.93a3.41,3.41,0,0,1,2.37,1.24,12.37,12.37,0,0,1,1.93,3.78,3.56,3.56,0,0,1-1.77-1.55,4.46,4.46,0,0,1-1.2,3.73s.67-.92.08-3.11C252.88,123.26,252,120.93,252,120.93Z" transform="translate(-4.15 -3.88)"/><path class="cls-14" d="M250.93,125a4.16,4.16,0,0,1,.42,2.33c-.24,1-.42,2.78-.42,2.78a3,3,0,0,1-1-2.48A12,12,0,0,1,250.93,125Z" transform="translate(-4.15 -3.88)"/><path class="cls-14" d="M243.56,101c0,1,.23,2.8.23,2.8s-1.55-.83-1.56-2.18a11.92,11.92,0,0,1,.39-2.8A4.19,4.19,0,0,1,243.56,101Z" transform="translate(-4.15 -3.88)"/><path class="cls-14" d="M253.38,130.13a7.33,7.33,0,0,1,.12,2.46,5.44,5.44,0,0,1-1.31-2.5,5.14,5.14,0,0,1,.36-2.51S253.09,129,253.38,130.13Z" transform="translate(-4.15 -3.88)"/><path class="cls-14" d="M235.84,82.22s.12,1.54.1,2.69a7.42,7.42,0,0,1-.57,2.4,5.47,5.47,0,0,1-.57-2.78A5.19,5.19,0,0,1,235.84,82.22Z" transform="translate(-4.15 -3.88)"/><path class="cls-14" d="M255.59,119a6.32,6.32,0,0,1,.66,1.89,3.5,3.5,0,0,1-1.91-1.35,6.66,6.66,0,0,1-.78-2.9A16.69,16.69,0,0,1,255.59,119Z" transform="translate(-4.15 -3.88)"/><path class="cls-14" d="M237.39,86.11a6.54,6.54,0,0,1,.66,1.88,3.44,3.44,0,0,1-1.91-1.35,6.67,6.67,0,0,1-.79-2.89A16.55,16.55,0,0,1,237.39,86.11Z" transform="translate(-4.15 -3.88)"/><path class="cls-14" d="M249.79,106.41a6.54,6.54,0,0,1,.66,1.88,3.45,3.45,0,0,1-1.92-1.35,6.75,6.75,0,0,1-.78-2.89A17.24,17.24,0,0,1,249.79,106.41Z" transform="translate(-4.15 -3.88)"/><path class="cls-14" d="M248.06,119.76a5.31,5.31,0,0,1,0,2.51,7.17,7.17,0,0,0-.31,2.26,1.84,1.84,0,0,1-.76-1.07,4.21,4.21,0,0,1,0-1.32,7.84,7.84,0,0,1-1.56,1.32,4.64,4.64,0,0,1-1.55.05,27.23,27.23,0,0,1,1.79-2.58A4.44,4.44,0,0,1,248.06,119.76Z" transform="translate(-4.15 -3.88)"/><path class="cls-14" d="M242.76,101.4a5.32,5.32,0,0,1,0,2.51,7.37,7.37,0,0,0-.32,2.26,1.8,1.8,0,0,1-.76-1.06,4.19,4.19,0,0,1,0-1.32,7.72,7.72,0,0,1-1.55,1.32,4.61,4.61,0,0,1-1.56,0,28.14,28.14,0,0,1,1.8-2.58A4.41,4.41,0,0,1,242.76,101.4Z" transform="translate(-4.15 -3.88)"/><path class="cls-14" d="M249.08,119.1a5,5,0,0,1,.54,2.09,5.16,5.16,0,0,1-2.27-1.43c-.6-.9.4-3.47.4-3.47S248.54,118.08,249.08,119.1Z" transform="translate(-4.15 -3.88)"/><path class="cls-14" d="M240.34,84.48a5.09,5.09,0,0,1,.55,2.09,5.23,5.23,0,0,1-2.28-1.43c-.6-.9.4-3.47.4-3.47S239.81,83.46,240.34,84.48Z" transform="translate(-4.15 -3.88)"/><path class="cls-14" d="M252.36,118.74a7.57,7.57,0,0,1,0,3.4,8.35,8.35,0,0,0-.55,1.74,3.05,3.05,0,0,1-.41-2.15C251.7,120.71,252.36,118.74,252.36,118.74Z" transform="translate(-4.15 -3.88)"/><path class="cls-14" d="M257.57,130.52c-.12,1.19-.13,2.07-.13,2.07s-1.07-1.31-.95-2.23a9,9,0,0,1,.78-2.23A4.62,4.62,0,0,1,257.57,130.52Z" transform="translate(-4.15 -3.88)"/><path class="cls-14" d="M249.1,110.26a6.34,6.34,0,0,1,1.83,2.33c.24,1,.42,2.51.42,2.51a4,4,0,0,1-1.13-1,6.85,6.85,0,0,1-.43-1.14,8.08,8.08,0,0,0-.24,2.16,3.8,3.8,0,0,0,.42,1.61,2.84,2.84,0,0,1-1.51-2C248.12,113.12,249.3,111.05,249.1,110.26Z" transform="translate(-4.15 -3.88)"/><path class="cls-14" d="M246.69,107.8V110a2.77,2.77,0,0,1-1-2.15,4.34,4.34,0,0,1,1-2.21Z" transform="translate(-4.15 -3.88)"/><path class="cls-14" d="M244.82,105.59a11.17,11.17,0,0,1-.94,2.18c-.54.87-1.2,2.18-1.2,2.18s-.6-2,.24-2.8A22.8,22.8,0,0,1,244.82,105.59Z" transform="translate(-4.15 -3.88)"/><path class="cls-14" d="M241.49,110c0,1-.12,2.07-.12,2.07a7.47,7.47,0,0,1-.62-2.07c0-.78,0-2.18,0-2.18A5.29,5.29,0,0,1,241.49,110Z" transform="translate(-4.15 -3.88)"/><path class="cls-14" d="M246.05,98.59a10.16,10.16,0,0,1,.64,2.74,9.2,9.2,0,0,1-1.55-1.89,20,20,0,0,1-.91-2.76A7.51,7.51,0,0,1,246.05,98.59Z" transform="translate(-4.15 -3.88)"/><path class="cls-14" d="M244.55,96.93a28.87,28.87,0,0,1,0,2.93,4.16,4.16,0,0,1-.91-2.06,10.93,10.93,0,0,1,.59-3A14.32,14.32,0,0,1,244.55,96.93Z" transform="translate(-4.15 -3.88)"/><path class="cls-14" d="M240.08,96.08s-.39,2.11-.69,3.36a9.33,9.33,0,0,0-.29,1.89,8,8,0,0,1-.53-2.49A4.3,4.3,0,0,1,240.08,96.08Z" transform="translate(-4.15 -3.88)"/><path class="cls-14" d="M241.11,96.68a19.56,19.56,0,0,1,.62,2.76,6,6,0,0,1-1.81-2.51,7.72,7.72,0,0,1-.23-2.8A11.63,11.63,0,0,1,241.11,96.68Z" transform="translate(-4.15 -3.88)"/><path class="cls-14" d="M236.7,93.81a8.81,8.81,0,0,1-.77,2.27,5.72,5.72,0,0,0-.66,1.72,4.17,4.17,0,0,1-.12-2.43A5.75,5.75,0,0,1,236.7,93.81Z" transform="translate(-4.15 -3.88)"/><path class="cls-14" d="M237.84,94.82a5.53,5.53,0,0,1-.12,2,13,13,0,0,1-1.19-2.25,5.73,5.73,0,0,1-.13-2.4A20.44,20.44,0,0,1,237.84,94.82Z" transform="translate(-4.15 -3.88)"/><path class="cls-14" d="M242.47,91.18a7,7,0,0,0,1.17,1.55,2.45,2.45,0,0,1-2.15-1,6.46,6.46,0,0,1-.8-2.38A7.44,7.44,0,0,1,242.47,91.18Z" transform="translate(-4.15 -3.88)"/><path class="cls-14" d="M239.33,89a16.55,16.55,0,0,1-.76,2A13.08,13.08,0,0,0,237.9,93s-.9-1.43-.36-2.39A4.63,4.63,0,0,1,239.33,89Z" transform="translate(-4.15 -3.88)"/><path class="cls-13" d="M258,133.81a25.71,25.71,0,0,0,7.52,3.6,24.58,24.58,0,0,1,8.3,4.14,6.5,6.5,0,0,1,2.5,4.63,7.62,7.62,0,0,1-.47,4.4,5.35,5.35,0,0,0-.48-2.36,10.77,10.77,0,0,0-1.74-2.25,4,4,0,0,1,.12,2.43,17.47,17.47,0,0,1-2.37,3.36,15.84,15.84,0,0,0-1.81,3.48,22,22,0,0,1-.27-3,9,9,0,0,1,1.52-4.48,4.6,4.6,0,0,0,.45-3.22,7.53,7.53,0,0,1-.58,1.66,2.87,2.87,0,0,1-2.21.76s1.9-1.26,1.45-2.79a7.36,7.36,0,0,0-3.41-4.12c-1.53-.72-5.21-2.14-7.15-3.21a16.81,16.81,0,0,1-3.8-2.72A1.52,1.52,0,0,1,258,133.81Z" transform="translate(-4.15 -3.88)"/><path class="cls-13" d="M226,59.44a6,6,0,0,1,4.79,1.33l-2.15,4.49s-2.2,1.88-2.9,1.88-1-.42-2.75-2-1-4.55-1-4.55A17.26,17.26,0,0,1,226,59.44Z" transform="translate(-4.15 -3.88)"/><path class="cls-12" d="M230.84,53.3c-.18-2.41.88-2.92,1.54-2.14a12.46,12.46,0,0,1,1.85,6c.05,1.93.34,5.36-.76,6.31a13.09,13.09,0,0,0-3.55-2.62,6.74,6.74,0,0,1,.34-3A17.26,17.26,0,0,0,230.84,53.3Z" transform="translate(-4.15 -3.88)"/><path class="cls-12" d="M221.5,55.77c1.35-.36,1.15,1.07,2.41,3.51a25.53,25.53,0,0,1,1.79,4.33,43.4,43.4,0,0,0-1.78,6A3.24,3.24,0,0,1,221,68c-1.42-2.43-.45-3-.7-5.32S220.14,56.12,221.5,55.77Z" transform="translate(-4.15 -3.88)"/><path class="cls-15" d="M211.34,59.3c1.89-.62,2.78,0,2.78,0a9.35,9.35,0,0,1-1.92,1.83,2.08,2.08,0,0,0-.88,1.78S209.44,59.93,211.34,59.3Z" transform="translate(-4.15 -3.88)"/><path class="cls-12" d="M220,62.25c.85-.39.76.18.76.18s-1.34,1.46-1.3,2.1C219,64.2,218.24,63.07,220,62.25Z" transform="translate(-4.15 -3.88)"/><path class="cls-12" d="M220.76,77.41h0S220.75,77.39,220.76,77.41Z" transform="translate(-4.15 -3.88)"/><path class="cls-12" d="M220.21,74.58a4.47,4.47,0,0,1,1.46,2.54,17.43,17.43,0,0,0,1.7,3.83,4.32,4.32,0,0,1-1.76-1.63,8.6,8.6,0,0,1-.86-1.91h0s0,0,0,0a2.77,2.77,0,0,0-.54,1.21,11.66,11.66,0,0,0,0,1.26,2.69,2.69,0,0,1-.94-1.39,5.45,5.45,0,0,1,.21-1.91A20,20,0,0,1,220.21,74.58Z" transform="translate(-4.15 -3.88)"/><path class="cls-12" d="M223.11,75.08a3.4,3.4,0,0,1,.51,1.59c-.06.63-.15,1.88-.15,2a2,2,0,0,1-.65-1.5C223,76.42,223.11,75.08,223.11,75.08Z" transform="translate(-4.15 -3.88)"/><path class="cls-12" d="M225.17,77.68a15.26,15.26,0,0,1-1.12-2,10.94,10.94,0,0,1-.68-2.58,18.08,18.08,0,0,1,1.51,2.22A5.71,5.71,0,0,1,225.17,77.68Z" transform="translate(-4.15 -3.88)"/><path class="cls-15" d="M250.16,133.46a4,4,0,0,1-.29,2,14.55,14.55,0,0,1-.77-1.92,8.4,8.4,0,0,1,0-1.93A5,5,0,0,1,250.16,133.46Z" transform="translate(-4.15 -3.88)"/><path class="cls-15" d="M246.69,126.15s.81,2.21.47,2.65a4.65,4.65,0,0,0-.47,1.72,2.81,2.81,0,0,1-.48-1.79C246.39,128,246.69,126.15,246.69,126.15Z" transform="translate(-4.15 -3.88)"/><path class="cls-15" d="M232.4,74a3.08,3.08,0,0,1-.27,1.78,7.24,7.24,0,0,1-1.78,1.43,15.22,15.22,0,0,1,1-1.92A11.15,11.15,0,0,1,232.4,74Z" transform="translate(-4.15 -3.88)"/><path class="cls-15" d="M233.78,74.38a5.23,5.23,0,0,0,.73,1.39s-2.65-.14-2.38-1a9.55,9.55,0,0,0,0-2.84A11.62,11.62,0,0,1,233.78,74.38Z" transform="translate(-4.15 -3.88)"/><path class="cls-15" d="M231.72,81.31s-.4,1.09-.84,2.44-.76,2.12-.76,2.12a1.92,1.92,0,0,1-.35-2.45A9,9,0,0,1,231.72,81.31Z" transform="translate(-4.15 -3.88)"/><path class="cls-15" d="M237.11,99.86s-.44,1.41-.78,2.52l-.34,1.11a4.66,4.66,0,0,1-.14-2.16A3.37,3.37,0,0,1,237.11,99.86Z" transform="translate(-4.15 -3.88)"/><path class="cls-15" d="M234.77,97.8a7.17,7.17,0,0,1,.22,2.29c-.08,1-.22,1.8-.22,1.8a1.86,1.86,0,0,1-.52-1.8C234.55,99,234.77,97.8,234.77,97.8Z" transform="translate(-4.15 -3.88)"/><path class="cls-15" d="M237.9,108a7.41,7.41,0,0,1,1.75-.27s-.2.51-1.3,1.13a5.05,5.05,0,0,1-1.65.69S237.18,108.28,237.9,108Z" transform="translate(-4.15 -3.88)"/><path class="cls-15" d="M233,88.38a7.46,7.46,0,0,1,1.76-.27s-.2.51-1.31,1.14a5.05,5.05,0,0,1-1.65.69S232.31,88.62,233,88.38Z" transform="translate(-4.15 -3.88)"/><path class="cls-15" d="M239.65,110a9.32,9.32,0,0,1-.32,1.62c-.23.89-.41,1.92-.41,1.92a1.9,1.9,0,0,1-.5-1.92A4.43,4.43,0,0,1,239.65,110Z" transform="translate(-4.15 -3.88)"/><path class="cls-15" d="M233.1,94.31a9.32,9.32,0,0,1-.32,1.62c-.23.89-.41,1.92-.41,1.92a1.9,1.9,0,0,1-.5-1.92A4.43,4.43,0,0,1,233.1,94.31Z" transform="translate(-4.15 -3.88)"/><path class="cls-15" d="M242.16,115.29a4.76,4.76,0,0,1,.52,2.43,13.61,13.61,0,0,1-.52,2s-1-1.08-.67-1.86A14.59,14.59,0,0,0,242.16,115.29Z" transform="translate(-4.15 -3.88)"/><path class="cls-15" d="M242.92,113.49s-.12,2.2-1,2.8a7.46,7.46,0,0,0-1.27,1.13,5.48,5.48,0,0,1,.72-2A13.18,13.18,0,0,1,242.92,113.49Z" transform="translate(-4.15 -3.88)"/><path class="cls-15" d="M245.07,127.58a5.29,5.29,0,0,1,0,1.8,3.56,3.56,0,0,1-.84-4.36C244.34,125.48,245,127,245.07,127.58Z" transform="translate(-4.15 -3.88)"/><path class="cls-15" d="M247.75,127.65a3.13,3.13,0,0,1-.59,2.4,10.68,10.68,0,0,0-1.11,1.79,2.21,2.21,0,0,1,.16-2.18A12.8,12.8,0,0,1,247.75,127.65Z" transform="translate(-4.15 -3.88)"/><path class="cls-3" d="M229.88,60.17c.72,2.55.25,4.14-1.31,3.64s-3.19-.74-3.62-1.7a27.36,27.36,0,0,1-1.32-3.41C225.19,56.17,229.15,57.62,229.88,60.17Z" transform="translate(-4.15 -3.88)"/><path class="cls-8" d="M72.71,139.07c-3.85-3.82-10.1-2.06-12.23-1.2,0,0,3.67,12.22,8.7,15.44a24.93,24.93,0,0,0,8.15,3.42s-3.91,8.25-3.55,10.74c.2,1.37,4.55,6.29,7.56,2.62s8.51-14.63,6-17.68S77.41,143.74,72.71,139.07Z" transform="translate(-4.15 -3.88)"/><path class="cls-16" d="M55.47,132.38a70,70,0,0,1-1.93,7.16s.58,5.21,2.74,7.53,8.19,1.74,8.19,1.74l.75-6.6S58.58,131.69,55.47,132.38Z" transform="translate(-4.15 -3.88)"/><path class="cls-16" d="M58.3,221.94,58,223.42s2.36-1.68,3.21-2.48a1.71,1.71,0,0,0,.39-1.86C60.6,219.62,58.63,220.47,58.3,221.94Z" transform="translate(-4.15 -3.88)"/><path class="cls-16" d="M90.49,204.94,90,206.09s1.93-.62,2.8-4.08A13.73,13.73,0,0,0,90.49,204.94Z" transform="translate(-4.15 -3.88)"/><path class="cls-7" d="M85.56,233.85c-2.11-2-3.69-3.77-3.69-3.77L73,227.27l-.7,5.58a4,4,0,0,0,1.79,2.25,39.6,39.6,0,0,0,6,3.14,36.2,36.2,0,0,0,8,1.74c2,.07,2.89-.87,1.83-1.91C88.12,236.31,87.52,235.76,85.56,233.85Z" transform="translate(-4.15 -3.88)"/><path class="cls-7" d="M54.46,245.39l-8.66-1a22.57,22.57,0,0,0,.81,11.18c2,5.68,5.59,5.73,6.84,5.28s1.82-4.05,1.6-8.14S54.46,245.39,54.46,245.39Z" transform="translate(-4.15 -3.88)"/><path class="cls-17" d="M78.75,184.33a92.91,92.91,0,0,1-7-7.74c-7.15-3.13-26.47.87-26.47.87s-4.09,9.39-2.4,18.46c.8,4.29,4.6,11.53,6.44,17.43a22.28,22.28,0,0,1,1,5.84c0,1.58-3.81,6.84-4.29,11.73A95.24,95.24,0,0,0,45.24,246c4.85,4.17,10.79.52,10.79.52s1.47-8.74,2.66-13.43c1.61-6.4,5.47-14,4.67-22.09-.51-5.22-1.39-16.33-1.39-16.33a30.69,30.69,0,0,0,6.85,4.07c4.28,1.83,12.43,4.84,12.43,4.84A15.71,15.71,0,0,0,76.67,211c-1.88,6.55-4.4,17.2-4.4,17.2a10.37,10.37,0,0,0,6.58,2.65,10,10,0,0,0,4.7-.93S93,207.55,93.81,206c1.35-2.56,2.37-6.67.22-8.92C92.09,195.07,82.46,187.55,78.75,184.33Z" transform="translate(-4.15 -3.88)"/><path class="cls-9" d="M71.84,151.73c-.66-3.44-4.06-11.14-4.06-11.14l-4.13.59a23.19,23.19,0,0,1,1.18,4.59c-2.55,1.52-6.07.51-7.88-1a9.85,9.85,0,0,1-3.41-5.22s-9.16,2.52-11.09,5.8c-4.51,7.71.87,18.59,1.17,22.46.11,1.36,1.45,6.29.34,8.07-2.07,3.33-1.27,3.87,0,5.38,4.45,5.32,25.86,1.76,29.07-3.74,1.24-2.12-.92-4.27-.82-6.07C72.53,165.89,72.85,157,71.84,151.73Z" transform="translate(-4.15 -3.88)"/><path class="cls-8" d="M66,142.58l-2.86,3-.95.39-8.66-1.93s4.12,5.94,5.84,8.06A57.23,57.23,0,0,0,66,158s1.81-6.83,1.34-9.8A41.48,41.48,0,0,0,66,142.58Z" transform="translate(-4.15 -3.88)"/><path class="cls-18" d="M65.25,143.67l-3,2.34L59,145.93a37.3,37.3,0,0,0,6.28,9.39,15.07,15.07,0,0,0,.7-6.85A45.92,45.92,0,0,1,65.25,143.67Z" transform="translate(-4.15 -3.88)"/><path class="cls-5" d="M64.37,141.26,62.2,146l3.74,2.46S66.88,143,64.37,141.26Z" transform="translate(-4.15 -3.88)"/><path class="cls-5" d="M53.84,138.62c-2.83,2.41.28,6.73.28,6.73a36.53,36.53,0,0,0,6.64,4.15L62.2,146a34.93,34.93,0,0,1-4.3-2.76A17.62,17.62,0,0,1,53.84,138.62Z" transform="translate(-4.15 -3.88)"/><path class="cls-10" d="M69.27,125.69c-3.58-6.51-11.82-4.37-14.2-1.67-3.1,3.51-1.78,8.25.23,12.33,1.79,3.63,6.41,6,8.51,6.55,3,.76,6.75-5.4,6.36-11.39C70.06,129.92,70.06,127.12,69.27,125.69Z" transform="translate(-4.15 -3.88)"/><path class="cls-7" d="M53,125.68a11.42,11.42,0,0,0,1.77,9.57s.8-.18,2.24-2.51a17,17,0,0,1,1.71-3.64s4.16,1.72,7.27,1.08a5.07,5.07,0,0,0,4.19-4C66.8,116.36,54.62,120.25,53,125.68Z" transform="translate(-4.15 -3.88)"/><path class="cls-10" d="M55,131c-1,1.65.9,3.81.9,3.81l1.57-2.65S56.41,128.6,55,131Z" transform="translate(-4.15 -3.88)"/><path class="cls-13" d="M106.14,228.94c.47-2.33,1.6-4.95,2-7.83.9-5.91-18.25-12.28-18.25-12.28s-.63,13.09.66,19.29a17.42,17.42,0,0,0,4,7.35c1.91,2.26,3.91,4.05,4.75,5.16,1.61,2.14,4.6,5.07,3.5,9.83s-5.09,3.16-5.09,3.16-3.79,3.61,1,4.81,7.06-1.38,7.06-1.38,3.19-9,3.26-12.9c.06-2.88-2.56-4.71-3.21-9.19A17.44,17.44,0,0,1,106.14,228.94Z" transform="translate(-4.15 -3.88)"/><path class="cls-13" d="M92,158.74c-1.17-.1-2.34-.81-4-1.07s-2.53,3.44-2.53,3.44,4.22,5.46,5.48,4.36.24-3.72,0-4.36,1.21.44,2.21-.36S93.2,158.84,92,158.74Z" transform="translate(-4.15 -3.88)"/><path class="cls-13" d="M82.11,169.62c-2.49-4.49-6.09-1.63-8.33-2.15s-3.16.42-3.12,2.33,5.56,2.35,5.56,2.35a54,54,0,0,0,1.5,5.78C78.78,181.31,82,190.58,89,192.55c4.51,1.27,2.74-8.2,2.74-8.2S84.6,174.11,82.11,169.62Z" transform="translate(-4.15 -3.88)"/><path class="cls-16" d="M71.66,169.59c-1,.5,0,3.29,2.34,4,1.22.39,3-.74,3-.74l-1.19-2.36S72.61,169.09,71.66,169.59Z" transform="translate(-4.15 -3.88)"/><path class="cls-14" d="M97,193c-.63-3.27-1.2-8.69-1.75-11.26s-2.67-3.86-3.87-5.85c-1-1.67-.32-5.38-.08-6.49a3.18,3.18,0,0,0,.08-.33c.8-5.26-5.2-9.69-7.63-9.08a16,16,0,0,0-3.61,1.32,28.25,28.25,0,0,0-4.94-3.42c-1.75-.57-2.46.06-2.83.76a10.72,10.72,0,0,0-1.09,6c.17,1.62,3.11,6,4.42,7.5.71,1,.13,3.34.18,4.88.19,6.84-3.94,10.59-1.66,16.46a58.84,58.84,0,0,0,7.1,14.28c2.4,3.35,1.3,7.72,1.69,8.5.79,1.6-.64,2.86-1.54,7.63-1.63,8.55,4.07,10,6.29,9.78s6.43.46,9.64,0,8.08-5.66,10.16-10.72c2.52-6.1-1.11-13.38-3.12-16.82S97.58,195.86,97,193Z" transform="translate(-4.15 -3.88)"/><path class="cls-14" d="M82.83,211.69s-2.28,14.13-2.25,20.45a17.34,17.34,0,0,0,2.49,8c1.41,2.59,3,4.75,3.62,6,1.16,2.42,3.5,5.89,1.47,10.33s-5.61,2.09-5.61,2.09-4.44,2.78,0,4.91,7.2,0,7.2,0,4.91-8.18,5.76-12c.63-2.81-1.57-5.13-1.32-9.65a17.38,17.38,0,0,1,1.47-5.84,52.47,52.47,0,0,1,3.56-7.27C101.56,225,82.83,211.69,82.83,211.69Z" transform="translate(-4.15 -3.88)"/><path class="cls-8" d="M46.43,166.54s5.52-11.94,4.48-17c-1.11-5.43-4.6-7.31-6.82-5.82-3.46,2.3-9.06,15.57-9.56,22.2-.16,2.13,1.75,9,5.12,12.26s11.49,7,13.58,7,6.09-6.32,3.53-8.74C54.76,174.53,46.43,166.54,46.43,166.54Z" transform="translate(-4.15 -3.88)"/><path class="cls-5" d="M53.94,179.82c-1.37,2.39-.35,3.5-.35,3.5l4.35,1.84a8.84,8.84,0,0,1,.7-2.64,9.22,9.22,0,0,1,1.33-2.2l-3.22-2.54S55.31,177.44,53.94,179.82Z" transform="translate(-4.15 -3.88)"/><path class="cls-10" d="M68.86,179.45c-2.53-1.82-6.29.08-6.29.08s-2.27-.06-3.7-.08c0,0-2,2.65-1.45,4.18l.52,1.53s5.11,1,7.12-.21S71.4,181.28,68.86,179.45Z" transform="translate(-4.15 -3.88)"/><path class="cls-14" d="M67.43,176.35c-3.24-4-5.72-.92-7.46-.46-2.23.6-3,.9-2.63,2.77,1.43,1.67,5.23.87,5.23.87A55.92,55.92,0,0,0,65.06,185c1.64,3.14,6.41,11.71,13.62,12.42,4.66.47,1.26-8.55,1.26-8.55S70.67,180.33,67.43,176.35Z" transform="translate(-4.15 -3.88)"/><path class="cls-10" d="M65.22,177.77c-1.11,0-1.83-1.35-3-.52s-3.33,2.2-3.33,2.2,2.33,2.25,3.33,2,1.3-1.61,1.3-1.61a6,6,0,0,0,1.72-.62C66.26,178.7,66.33,177.78,65.22,177.77Z" transform="translate(-4.15 -3.88)"/><path class="cls-13" d="M74.55,164.62c-1.41.77-1.61,2.58,0,2.88a7.23,7.23,0,0,0,2.81,0,28.26,28.26,0,0,0,2.38,2.29,2.41,2.41,0,0,0,3.45,0v-4a28.66,28.66,0,0,0-3.82-2.59C77.76,162.37,76,163.86,74.55,164.62Z" transform="translate(-4.15 -3.88)"/><path class="cls-13" d="M72.39,158.6l1.28,1a2.64,2.64,0,0,1,2.44-1.27C74.47,156.88,72.44,157.53,72.39,158.6Z" transform="translate(-4.15 -3.88)"/><path class="cls-14" d="M114.76,224.3c-2.37-.83-6.69-3.52-7.89-6.13s-5.88.15-4.87,2.61a32.07,32.07,0,0,0,4.17,7c2.27,2.61,5.46,3.74,4.72,6.38a4.81,4.81,0,0,1-2.45,3.07s2.15.25,3.25-.71c.84.84-1.14,3.14-3.72,3.48s-2.91,3.15-2.91,3.15a2.49,2.49,0,0,1,1.66-.45c-1,2.51-1.3,4.58,1.55,6.28s5.71-1.52,5.71-1.52-3.09-.09-2.69-1.9c.48-2.15,4.17-1.54,6.83-5.56,2.11-3.18,1.46-9.15.45-10.76a7.93,7.93,0,0,0-2.31-2.41,13,13,0,0,0,3.16,0,5.54,5.54,0,0,0,2.42-1.68A18.23,18.23,0,0,1,114.76,224.3Z" transform="translate(-4.15 -3.88)"/><path class="cls-13" d="M102.8,219.08s-1.25.56-.8,1.7c0,0,1.33,4.7,3.91,7.08s4.5,3.92,4.5,3.92a7.08,7.08,0,0,0-2.44-3.92C104.86,225,102.8,219.08,102.8,219.08Z" transform="translate(-4.15 -3.88)"/><path class="cls-13" d="M112.6,234.89a4.49,4.49,0,0,1-.91,1.61s.4.55-.26,1.56a4.78,4.78,0,0,1-2.06,1.54s.21.32,1.52.12,3.21-1.66,3-3.57a5.47,5.47,0,0,0-1.25-2.52S112.85,234,112.6,234.89Z" transform="translate(-4.15 -3.88)"/><path class="cls-13" d="M111.85,244.6s-2.32.34-2.17,1.85,1.94,1.54,1.94,1.54-.58-.34-.53-.84c1,.84,2.89.29,2.89.29S111.09,247.15,111.85,244.6Z" transform="translate(-4.15 -3.88)"/><path class="cls-13" d="M108.13,243.44a1.74,1.74,0,0,0,.82,1.75,2.92,2.92,0,0,1,.1-1.69,5.62,5.62,0,0,1,1-1.51S108.35,242.3,108.13,243.44Z" transform="translate(-4.15 -3.88)"/><path class="cls-13" d="M110.61,242a7.23,7.23,0,0,0-2.55-.56c.66.15,1.2,1.41,2.35,1.51a4.08,4.08,0,0,0,2.36-.8A2.81,2.81,0,0,1,110.61,242Z" transform="translate(-4.15 -3.88)"/><path class="cls-13" d="M113.5,240c-.4.47-1.65.49-1.65.49s.75.91,1.6.4.75-1.86.75-1.86A7.41,7.41,0,0,1,113.5,240Z" transform="translate(-4.15 -3.88)"/><path class="cls-13" d="M113.3,227.51a5,5,0,0,1,2.11,1.51,6.67,6.67,0,0,1,.75,1.76,2,2,0,0,0,0-2.37C115.26,227.36,113.3,227.51,113.3,227.51Z" transform="translate(-4.15 -3.88)"/><path class="cls-13" d="M110.89,227.5c.15,0,1.59.82,2.41.61a3.92,3.92,0,0,0,1.63-1.2l-1.9.36C112.24,227.41,110.89,227.5,110.89,227.5Z" transform="translate(-4.15 -3.88)"/><path class="cls-13" d="M116,239.47a6.76,6.76,0,0,0-1.08,1.35s1.83-.55,2.34-1.4-.25-2.06-.25-2.06A4.77,4.77,0,0,1,116,239.47Z" transform="translate(-4.15 -3.88)"/><path class="cls-13" d="M116,235.6c0,.2-.21,1.57.6,2.11a4.2,4.2,0,0,0,1.51.65,6.26,6.26,0,0,0-.9-1.38Z" transform="translate(-4.15 -3.88)"/><path class="cls-13" d="M92,229.41a6.09,6.09,0,0,0,0,2.42s1.5-1.36,1.41-2.42,0-3.32,0-3.32A6.83,6.83,0,0,0,92,229.41Z" transform="translate(-4.15 -3.88)"/><path class="cls-13" d="M94.5,228.92a2.18,2.18,0,0,0,.65,2.54,3.5,3.5,0,0,1,1-2.69,3.49,3.49,0,0,0,1-2.68A9.31,9.31,0,0,0,94.5,228.92Z" transform="translate(-4.15 -3.88)"/><path class="cls-13" d="M80.57,202.76a4.43,4.43,0,0,0,1.68.59c.41,0,1.15-.56,1.15-.56l-3.05-1.71a4.32,4.32,0,0,0,1.88-.21,2.4,2.4,0,0,0,.87-.79l-2.68-.68a9.32,9.32,0,0,0,2.34-1.13,33.13,33.13,0,0,1-3.55-.45,15.47,15.47,0,0,1-3.8-1.34s1.09,3.35,2.12,5.69a29.1,29.1,0,0,0,3.61,5.61,10.8,10.8,0,0,1,1.31,5.45c-.1,1-.7,5.85-.7,5.85a27.53,27.53,0,0,0,2.11-5.89,11.69,11.69,0,0,0-2.11-7.73C80.34,203.55,80.57,202.76,80.57,202.76Z" transform="translate(-4.15 -3.88)"/><path class="cls-13" d="M87,213.87a8.26,8.26,0,0,1-1.2,3.48S87.89,216,88,214.22a10.69,10.69,0,0,0-.6-3.65A23.62,23.62,0,0,1,87,213.87Z" transform="translate(-4.15 -3.88)"/><path class="cls-13" d="M85.77,209.86a4.4,4.4,0,0,0-.47,2.27A3,3,0,0,0,87,209.3l-.1-2.06S86.36,208.64,85.77,209.86Z" transform="translate(-4.15 -3.88)"/><path class="cls-13" d="M89.77,226.46a21.05,21.05,0,0,1,1.63-1.93,9,9,0,0,0,1.4-1.92,9.23,9.23,0,0,0-2.42,1.58A2.41,2.41,0,0,0,89.77,226.46Z" transform="translate(-4.15 -3.88)"/><path class="cls-13" d="M80.75,195A19.91,19.91,0,0,0,77,194.2a8,8,0,0,0,2.72,1.5,11.53,11.53,0,0,0,2.71.39S82.21,195.48,80.75,195Z" transform="translate(-4.15 -3.88)"/><path class="cls-13" d="M72.59,189.68a4,4,0,0,0-.11,2.71c.53,1.12,1,2.09,1,2.09s.87-1.57.32-2.49S72.59,189.68,72.59,189.68Z" transform="translate(-4.15 -3.88)"/><path class="cls-13" d="M70.65,188.7s0,1.81.59,2.41a5.21,5.21,0,0,0,1.42,1s-.5-.9-1-1.69S70.65,188.7,70.65,188.7Z" transform="translate(-4.15 -3.88)"/><path class="cls-13" d="M90.38,235.27a4,4,0,0,0,.51,3.39,18.12,18.12,0,0,1,1,1.66,4.64,4.64,0,0,0,0-2.52A10.85,10.85,0,0,0,90.38,235.27Z" transform="translate(-4.15 -3.88)"/><path class="cls-13" d="M90.73,234.85a10.2,10.2,0,0,0-2-.78,2.63,2.63,0,0,0,1.6,2,3,3,0,0,0,2.3.32A10.08,10.08,0,0,0,90.73,234.85Z" transform="translate(-4.15 -3.88)"/><path class="cls-13" d="M93.44,183.87a3.84,3.84,0,0,0-.76,2.57c.1,1.59.94,1.89.94,1.89a9.2,9.2,0,0,0,0-2.23A18.86,18.86,0,0,1,93.44,183.87Z" transform="translate(-4.15 -3.88)"/><path class="cls-13" d="M90,185.86a3.76,3.76,0,0,0,.38,2.47,6.23,6.23,0,0,0,.87-2.31,15.62,15.62,0,0,0,0-2.31A4.94,4.94,0,0,0,90,185.86Z" transform="translate(-4.15 -3.88)"/><path class="cls-13" d="M77.33,174.61a11.22,11.22,0,0,1,1,3.16,20.09,20.09,0,0,1,0,2.42,4.4,4.4,0,0,0,.91-2.79A6.7,6.7,0,0,0,77.33,174.61Z" transform="translate(-4.15 -3.88)"/><path class="cls-13" d="M80.83,175.74a4.4,4.4,0,0,0-1.92-.75,6,6,0,0,0,1.67,2,5.87,5.87,0,0,0,2.18.42A12.62,12.62,0,0,0,80.83,175.74Z" transform="translate(-4.15 -3.88)"/><path class="cls-19" d="M89.7,180.19c-1.14-.68-1.73-1-1.73-1a3.48,3.48,0,0,0,1.19,1.94,6.94,6.94,0,0,0,1.45.93A1.9,1.9,0,0,0,89.7,180.19Z" transform="translate(-4.15 -3.88)"/><path class="cls-19" d="M86.14,178.66a3.78,3.78,0,0,0,0,2,6.65,6.65,0,0,0,.85,1.78,1.92,1.92,0,0,0,.36-1.9A10.65,10.65,0,0,0,86.14,178.66Z" transform="translate(-4.15 -3.88)"/><path class="cls-19" d="M88.86,171.43a3.78,3.78,0,0,0-.53,2.58,4.5,4.5,0,0,0,1.44,1.81s-.18-1.25-.47-2.47S88.86,171.43,88.86,171.43Z" transform="translate(-4.15 -3.88)"/><path class="cls-19" d="M85.8,175a3.34,3.34,0,0,0,.76,2,2.64,2.64,0,0,0,.43-2,3.73,3.73,0,0,0-.85-2.11A10.21,10.21,0,0,0,85.8,175Z" transform="translate(-4.15 -3.88)"/><path class="cls-19" d="M89.3,178.08a4.44,4.44,0,0,0,.24,2.47c.52.77,1.07,1.55,1.07,1.55a2.28,2.28,0,0,0,0-2.25C89.91,178.91,89.3,178.08,89.3,178.08Z" transform="translate(-4.15 -3.88)"/><path class="cls-19" d="M95.27,197.07a6.11,6.11,0,0,0,1.12,2.56,19.88,19.88,0,0,1,1.51,1.88,2,2,0,0,0-.38-2.22A15,15,0,0,0,95.27,197.07Z" transform="translate(-4.15 -3.88)"/><path class="cls-19" d="M94.3,203.55a6.43,6.43,0,0,0,.29,2,3.85,3.85,0,0,0,.68-2.26,13.94,13.94,0,0,0-.38-2.34A10.61,10.61,0,0,0,94.3,203.55Z" transform="translate(-4.15 -3.88)"/><path class="cls-19" d="M91.4,201.51a4.13,4.13,0,0,0-.46,1.7s1.5-.49,1.74-1.7.5-2.22.5-2.22A6.9,6.9,0,0,0,91.4,201.51Z" transform="translate(-4.15 -3.88)"/><path class="cls-19" d="M91.4,197.39v2.84a2.49,2.49,0,0,0,.53,1.78,8.1,8.1,0,0,0,.19-2.72C91.87,198.5,91.4,197.39,91.4,197.39Z" transform="translate(-4.15 -3.88)"/><path class="cls-19" d="M88.72,197.74a2.38,2.38,0,0,0,0,1.55,3.73,3.73,0,0,0,1-1.55c.12-.74.29-1.58.29-1.58A5.06,5.06,0,0,0,88.72,197.74Z" transform="translate(-4.15 -3.88)"/><path class="cls-19" d="M92.68,207.78A4.79,4.79,0,0,0,92,210a5.76,5.76,0,0,0,.65,2.42,3.4,3.4,0,0,0,.5-2.33A14.74,14.74,0,0,1,92.68,207.78Z" transform="translate(-4.15 -3.88)"/><path class="cls-19" d="M95.27,208.52c-.38.15-.65,1.16-1,2s-.21,1.94,0,1.87a3.55,3.55,0,0,0,1-2.33A8.18,8.18,0,0,1,95.27,208.52Z" transform="translate(-4.15 -3.88)"/><path class="cls-19" d="M95.71,216.81a6.77,6.77,0,0,0,0,2.27,3.14,3.14,0,0,0,1-2c0-1,0-3.15,0-3.15A19.43,19.43,0,0,0,95.71,216.81Z" transform="translate(-4.15 -3.88)"/><path class="cls-19" d="M93.26,216a2.63,2.63,0,0,0-.46,1.37,13.62,13.62,0,0,0,1.3-.83,4.72,4.72,0,0,0,1.17-1.82A4.8,4.8,0,0,0,93.26,216Z" transform="translate(-4.15 -3.88)"/><path class="cls-19" d="M102.57,211.84a3.46,3.46,0,0,0,1.21,2,7.63,7.63,0,0,1,1.61,1.71,2.89,2.89,0,0,0-.5-2.49A4.41,4.41,0,0,0,102.57,211.84Z" transform="translate(-4.15 -3.88)"/><path class="cls-19" d="M99.11,210.11a2,2,0,0,0,.32,2c.81,1,1.41,1.83,1.41,1.83a2.18,2.18,0,0,0-.23-2.12C99.86,210.93,99.11,210.11,99.11,210.11Z" transform="translate(-4.15 -3.88)"/><path class="cls-19" d="M95.71,210.11a14.22,14.22,0,0,1-1,1.27,2.38,2.38,0,0,0,2-.81c.62-.92,0-2.79,0-2.79A13,13,0,0,1,95.71,210.11Z" transform="translate(-4.15 -3.88)"/><path class="cls-19" d="M102.27,207.24c-1.28-.53-2.85-1.15-2.85-1.15a8.23,8.23,0,0,0,2.1,1.69,16,16,0,0,0,2.11.74S103.55,207.77,102.27,207.24Z" transform="translate(-4.15 -3.88)"/><path class="cls-19" d="M101.06,207.13s.38.89.71,1.8,2.31,1,2.31,1-.68-.92-1.43-1.74A3.74,3.74,0,0,0,101.06,207.13Z" transform="translate(-4.15 -3.88)"/><path class="cls-16" d="M106.93,25.16c-2.83,3.29-3.41,6.47-4.89,9.86s-3.8,9-4.41,10-1.38,4.15,0,5.37,4.65-1.71,6.74-5.37S108.19,38,108.19,38s7.54-12,4.61-14.54C112.8,23.46,109.76,21.87,106.93,25.16Z" transform="translate(-4.15 -3.88)"/><path class="cls-20" d="M106.08,76.12s0,8.92-.35,12.68c-.49,5.67-.38,8.38,1.26,16a138.35,138.35,0,0,1,1.39,20.66C108,132,105,135.15,104,136.77s2.89,3.17,5.37.8,2.74-2.84,4.15-3.59.92-2.52.82-6.24c-.08-2.88,1.17-12.47,1.65-18.61.68-8.73-1.24-8.92-1.1-13.33a65.91,65.91,0,0,1,2.5-16.44C118,77.52,106.08,76.12,106.08,76.12Z" transform="translate(-4.15 -3.88)"/><path class="cls-21" d="M115.44,129.6a1.33,1.33,0,0,0-.08-.23h0a5.64,5.64,0,0,0-1.06-1.63s-.59,5.28-3.69,7.45c-3.46,2.43-5,2.8-6.65,1.58a35.22,35.22,0,0,1-2.75,3.36c-1,1.14-.16,2.28,2.86,2.06a7.63,7.63,0,0,0,5.13-2.54,40.37,40.37,0,0,1,3.59-4.63c.2-.17.36-.32.53-.48h0c.09,1.4.05,2.29.12,3.31.29.46.74.35,1.09,0a19.92,19.92,0,0,1,.56-4.2,7.62,7.62,0,0,0,.36-4Z" transform="translate(-4.15 -3.88)"/><path class="cls-10" d="M129.5,109.18c-.61-3.72-1.89-6-2.27-8-.33-1.75,1.12-9.27,1.12-9.27L117.5,95.64s1.69,12.48,2.56,17,3.19,19.08,2.9,22.82a44.34,44.34,0,0,1-1.83,8.12c-.62,2.12.22,3.67,1.65,4.12,2.59.79,5.92-8,5.72-12.1C128.21,129.49,130.11,112.9,129.5,109.18Z" transform="translate(-4.15 -3.88)"/><path class="cls-22" d="M128.73,143.93s.16-1.09.23-2.35.3-3.78.3-3.78a11.3,11.3,0,0,0-1.81,5.82C127.71,144.75,128.73,143.93,128.73,143.93Z" transform="translate(-4.15 -3.88)"/><path class="cls-21" d="M128.48,135a20.39,20.39,0,0,1-1.28,6.4c-1.6,3.73-2.85,4.53-4.48,4.58-1.8,0-1.58-2.6-1.58-2.6a44.94,44.94,0,0,0-1.14,4.38c-.28,1.27-.06,2.92,1.25,3.11,3.37.49,4.38-1.74,5-3.11.85-1.75,1.73-6.38,2.53-8.73C130.19,136.24,128.48,135,128.48,135Z" transform="translate(-4.15 -3.88)"/><path class="cls-21" d="M128.51,62.5s-5.81-2.56-8.09-2.59c-4.22-.07-8.92,1.06-12.91-.57a.32.32,0,0,0-.46.22.13.13,0,0,0-.16.12c-1.92,7.15-5.71,27.95-4.68,39.23,1.5,1,3.72-.45,5.46,4.5,1.38,3.94,9.52,4.79,11.68,1.82,2.53-3.45,12.86-2,14.77-3.11,1.18-5.57.82-18-.21-24.26C132.65,70.18,130.38,65,128.51,62.5Z" transform="translate(-4.15 -3.88)"/><path class="cls-5" d="M130.73,32.4c-.59-2.35-6.17-4.89-6.17-4.89l-7.79-4.28s-.56-.14-1.37-.28c-1.23,1.35-3.63,4.95-4.93,6.43s-5,6.42-3.82,11.12A52.18,52.18,0,0,1,108,51.77a62.6,62.6,0,0,1-1.12,7.91c2.65,6.38,16.53,4.51,20.66,2.82-.54-3.17-1.9-11.75-1.75-14.75C125.8,47.75,132.67,40.15,130.73,32.4Z" transform="translate(-4.15 -3.88)"/><path class="cls-4" d="M130.56,32c-1.29-2.25-7.23-6.52-7.23-6.52h-1.84L116.2,22.5s-.57-.14-1.38-.29c-1.22,1.36-3.78,4.83-4.93,6.44-2,2.74-5,6.42-3.82,11.12a53,53,0,0,1,1.67,8.76c.21,4.83-1.07,11.68-1.88,15.42,6.6,6.18,16.4,4.55,23.5-.38-.86-4-1.87-10.11-1.2-14.57C129.51,40,130.76,32.31,130.56,32Z" transform="translate(-4.15 -3.88)"/><path class="cls-16" d="M123,17.14C120.47,16,115.73,23,115.73,23a19.65,19.65,0,0,1-.72,5.16,24.13,24.13,0,0,0-.41,4.49c1-.69,3.51-1.42,5-2.4a11.83,11.83,0,0,0,3.72-4.83C123.12,23.75,122.13,21,123,17.14Z" transform="translate(-4.15 -3.88)"/><path class="cls-7" d="M107.12,19.65c.21,1.62,2.43,5.15,2.81,6.58.78,3-2.77,3.51-2.77,3.51a4.41,4.41,0,0,0,4.94-.1c3.15-2,3.34-8.51,4.36-9.48,2.07-1.94-4.75-13.55-4.75-13.55S105.8,9.59,107.12,19.65Z" transform="translate(-4.15 -3.88)"/><path class="cls-10" d="M110.84,11.16c-3,6.52,2.23,15.57,5.63,14.45,1.9-.62,6-3.09,7.45-6.54,1.61-3.89.33-8.84-1.56-10.6A7.18,7.18,0,0,0,110.84,11.16Z" transform="translate(-4.15 -3.88)"/><path class="cls-7" d="M119.44,5.49S114.22.54,109.93,8c-1.94,3.35-.81,5.44,0,6.69a22.75,22.75,0,0,0,6.92-1.1s2.88,1.21,4.33,6.92c.61,2.44-1.52,8.2-3,11.27-1.08,2.26.42,8.22,4.41,6.58-3.25-1,1.11-6.42,3.31-10.15a23.34,23.34,0,0,0,2-6,19.26,19.26,0,0,0-2.39-14.49C123.73,4.62,119.44,5.49,119.44,5.49Z" transform="translate(-4.15 -3.88)"/><path class="cls-7" d="M128.31,19.23l-2.72,7.94L128.9,30s2.41-1.95,1.1-3.71C128.37,24.12,128.31,19.23,128.31,19.23Z" transform="translate(-4.15 -3.88)"/><path class="cls-23" d="M113.12,66.92a.82.82,0,0,0,.12.29S113.19,67.1,113.12,66.92Z" transform="translate(-4.15 -3.88)"/><path class="cls-6" d="M113.3,37.62a14.61,14.61,0,0,0,.31-3.83s-2.43,3.74-1.72,6.79A45.65,45.65,0,0,1,112.68,53c-.17,2.51-.41,6.53-.36,9.81a12,12,0,0,0,.8,4.15,11.85,11.85,0,0,1,.12-4.5,94.16,94.16,0,0,0,.37-17.33C113.29,41.65,112.84,40.16,113.3,37.62Z" transform="translate(-4.15 -3.88)"/><path class="cls-22" d="M126.56,70.49s.81,9.12,1.81,17.69a74.57,74.57,0,0,1,0,14.55l2-.09s.72-14.81,0-19.48S126.56,70.49,126.56,70.49Z" transform="translate(-4.15 -3.88)"/><path class="cls-22" d="M119.64,76.12S119,85.82,119,92s.39,13.23.39,13.23l2.2-1.49s.71-9.2,0-14.56S119.64,76.12,119.64,76.12Z" transform="translate(-4.15 -3.88)"/><path class="cls-22" d="M106.43,88.17c-.28,5.85-.61,12.11-.61,12.11l1.11,1.44s.53-10.29,1.26-15.83a91.32,91.32,0,0,0,.67-11.24A75.66,75.66,0,0,0,106.43,88.17Z" transform="translate(-4.15 -3.88)"/><path class="cls-5" d="M115.06,35.27c-.8-.15-1.45,1.67-.46,1.84S115.92,35.43,115.06,35.27Z" transform="translate(-4.15 -3.88)"/><path class="cls-5" d="M115.11,44.34c-.79-.15-1,1.68,0,1.85S116,44.5,115.11,44.34Z" transform="translate(-4.15 -3.88)"/><path class="cls-5" d="M115.06,54.24c-.79-.15-1,1.68,0,1.84S115.93,54.4,115.06,54.24Z" transform="translate(-4.15 -3.88)"/><path class="cls-5" d="M114.43,63.2c-.79-.14-1,1.68,0,1.85S115.3,63.37,114.43,63.2Z" transform="translate(-4.15 -3.88)"/><path class="cls-24" d="M97.13,72s-8.57,6.24-9.54,6.71,2.32,3.49.65,8-1.38,3.93-1.55,5.1,3,5.46,4.4,7.73,2.26,3.93,3.09,2.83,1.43-2-.62-5.89S90.08,92,91.09,90.36s5-6.8,6-10.17C99.19,73.41,97.13,72,97.13,72Z" transform="translate(-4.15 -3.88)"/><path class="cls-24" d="M102.91,43.77A26.7,26.7,0,0,0,98.62,47s.37,4.17,2.22,3.28a6.47,6.47,0,0,0,3-3.18c.39-.73,1.88-1.42,2-2.53S104.71,42.89,102.91,43.77Z" transform="translate(-4.15 -3.88)"/><path class="cls-25" d="M99.67,42.16c-1.36-1.35-3.1-1.39-5-1.41-3.27,0-5.57,3.53-6.16,5.87a5.45,5.45,0,0,0,5.34,6.5c4.44.28,7.39-.38,8.17-2.44a6.65,6.65,0,0,0,0-4.91A7.75,7.75,0,0,0,99.67,42.16Z" transform="translate(-4.15 -3.88)"/><path class="cls-25" d="M102.44,70.09a1.94,1.94,0,0,1-1.29-1.68c-.1-2.34-.85-4.49-.85-7.63,0-5.23.91-7.28-1.07-9.4s-7.71-4.61-7.71-4.61-4.38,3.34-5.28,4.37a3.07,3.07,0,0,0-.89,2.4,1.17,1.17,0,0,1-1.21,1.11c0,.25.65.53,1.31.53.25,1.74.26,3.34.59,5a4.53,4.53,0,0,1-.71,1.92,1.16,1.16,0,0,0,1.16.11,2.8,2.8,0,0,1-.93,1.57c0,.34.71.48,1.08.48a47,47,0,0,1,0,5.77c0,.46-.42,2.06-1.09,2.06.11.43.67.47,1,.47-.08,1.3-.81,1.95-1.23,2a.83.83,0,0,0,.85.57c-.41,2.43-.35,6.63.64,8.09s3.58,3.26,9.24,5.63c1.13.47,3.62-2.59,3.81-4.33s1.53-10.24,1.53-11.56c0-.3,0-.58,0-.86a2,2,0,0,0,1-.19c-.37-.26-1.11-.76-1.11-1.36C102,70.49,102.26,70.49,102.44,70.09Z" transform="translate(-4.15 -3.88)"/><path class="cls-10" d="M128.9,30c-2.93-.78-4.39,3.49-5.34,5.91s-3.67,14.3-3.67,14.3-8.81,1.56-12.11,4-4.52,1.27-7,1.21-.82-.53-3.07,1-3.23,5.26-2.62,6.77,5.13,1.4,7.65-.78,5-2.2,11.62-3.11c4.58-.64,10.82,0,13.57-7.38S135.15,31.67,128.9,30Z" transform="translate(-4.15 -3.88)"/><path class="cls-25" d="M111.14,45.78c-2.31.19-3.35,1.61-4.61,2.68s-4.87,4.63-6.9,4.44a7.19,7.19,0,0,0-5.45,1.45c-1.37,1.21,0,4.63,0,4.63a22.88,22.88,0,0,0,6.36-.48c.63.29,1.15.18,1.64.81.25-.28,0-1.13-.14-1.53.4,0,1.1.68,2.1.32a1,1,0,0,1,.17-1.37c2.22-2,4.94-6.43,6.83-7.7C113.26,47.6,113.45,45.59,111.14,45.78Z" transform="translate(-4.15 -3.88)"/><path class="cls-16" d="M85.45,55.18a3.49,3.49,0,0,0-.33,3.92c1.53,2.36,2.77,1.08,2.77-.86a5.2,5.2,0,0,0-.3-1.79A7,7,0,0,1,85.45,55.18Z" transform="translate(-4.15 -3.88)"/><path class="cls-25" d="M99.54,94.57c.55-1.86,3.5-9.07,3.63-12.58.25-7.09-2.36-9.95-2.36-9.95S94,83.29,93.14,84s3.13,2.78,2.69,7.61-.68,4.31-.54,5.48,4.44,4.8,6.36,6.63,3.4,2.79,3.92,1.52.74-1.56-2.22-4.75S99,96.42,99.54,94.57Z" transform="translate(-4.15 -3.88)"/><path class="cls-25" d="M86.06,76.53a49.79,49.79,0,0,1-2.53,8.84c-.14.35-1.38,1.54-2,1.43.16.62.39.8.92.8-.24.49-1.59,1.32-2.14,1.92.31,0,.84.07,1.19.07a4.24,4.24,0,0,1-1.9,1.34c.07.4.48.5,1,.66a17.76,17.76,0,0,0-1,3.79c0,.36-.45,1.3-1,1.38a.93.93,0,0,0,1,.57A2.22,2.22,0,0,1,79,98.94c.34.42.43.33.95.35a4.54,4.54,0,0,1-.57,1.83,1.09,1.09,0,0,0,1.08.26,3.79,3.79,0,0,1-.54,1.85,1.1,1.1,0,0,0,1.18.24,2.09,2.09,0,0,0,.16,1.7,3,3,0,0,0,.92-.71c.57.71,2,.21,2-.35a1.17,1.17,0,0,1-1.2-.89c.62,0,1.3-.36,1.2-1-1.34-.38-1.28-3.88-1.16-5.12a.88.88,0,0,0,1.16-.24,3.13,3.13,0,0,1-.77-2.3,1.06,1.06,0,0,0,1.27-.3c-.5-.31-.64-2.16-.5-2.57a34,34,0,0,1,2-3.56,32.74,32.74,0,0,0,1.61-3.56c.16-.44,1.15-.33,1.24-.67.3-1.18-.62-2.44-.6-3.56C88.47,76.5,86.4,73.73,86.06,76.53Z" transform="translate(-4.15 -3.88)"/><path class="cls-24" d="M96.84,73.07A2.73,2.73,0,0,0,98,75.6a2.33,2.33,0,0,0,2.42.07,5.35,5.35,0,0,1-2.09-1A6.84,6.84,0,0,1,96.84,73.07Z" transform="translate(-4.15 -3.88)"/><path class="cls-24" d="M95.56,74.8a3.17,3.17,0,0,0,.84,2.3c.92.82,2.22,0,2.22,0S96.13,76,95.56,74.8Z" transform="translate(-4.15 -3.88)"/><path class="cls-24" d="M87.64,76.4a3.93,3.93,0,0,1-1,.75s1.21.46,1.7-.3a1.84,1.84,0,0,0,0-1.69A4,4,0,0,1,87.64,76.4Z" transform="translate(-4.15 -3.88)"/><path class="cls-24" d="M94.15,78.79a2.69,2.69,0,0,0,.41,1.89l1,1.43a2.17,2.17,0,0,0,.07-1.84A5.19,5.19,0,0,0,94.15,78.79Z" transform="translate(-4.15 -3.88)"/><path class="cls-24" d="M93,80.45v1.81a4.24,4.24,0,0,1-.3,1.54,2.35,2.35,0,0,0,1.18-1.54A2.22,2.22,0,0,0,93,80.45Z" transform="translate(-4.15 -3.88)"/><path class="cls-24" d="M98,70.92a2,2,0,0,0,0,1.79,1.81,1.81,0,0,0,1.41.77A4.55,4.55,0,0,1,98.64,72,2.77,2.77,0,0,0,98,70.92Z" transform="translate(-4.15 -3.88)"/><path class="cls-24" d="M89.09,70.16a4,4,0,0,1-.47,1.22,4,4,0,0,1-1,.82s1.29.36,1.75-.56A1.16,1.16,0,0,0,89.09,70.16Z" transform="translate(-4.15 -3.88)"/><path class="cls-24" d="M93.57,68.57a2.93,2.93,0,0,0,0,1.92A7.88,7.88,0,0,0,94.46,72a2,2,0,0,0,.1-1.88C94.05,69.29,93.57,68.57,93.57,68.57Z" transform="translate(-4.15 -3.88)"/><path class="cls-24" d="M95.82,67.21a5,5,0,0,0,0,1.62c.17.36,1.27.82,1.27.82s-.4-.92-.67-1.49A5.6,5.6,0,0,0,95.82,67.21Z" transform="translate(-4.15 -3.88)"/><path class="cls-24" d="M99.06,88.84a4,4,0,0,0,.39,1.09,4.39,4.39,0,0,0,.42-1.75,6.46,6.46,0,0,0-.2-1.27A14,14,0,0,0,99.06,88.84Z" transform="translate(-4.15 -3.88)"/><path class="cls-24" d="M99.87,84.46a4.37,4.37,0,0,1,.82,1.38c.15.61.26,1.28.26,1.28a2.13,2.13,0,0,0,.35-1.69C101.05,84.56,99.87,84.46,99.87,84.46Z" transform="translate(-4.15 -3.88)"/><path class="cls-24" d="M82.45,92.63a1.27,1.27,0,0,0,.87.82A9.18,9.18,0,0,1,82.71,91,2.84,2.84,0,0,0,82.45,92.63Z" transform="translate(-4.15 -3.88)"/><path class="cls-24" d="M82.86,89.16c-.41.46-.71.77-.71.77a1,1,0,0,0,1.17-.41,1.43,1.43,0,0,0,.24-1.34A6.25,6.25,0,0,1,82.86,89.16Z" transform="translate(-4.15 -3.88)"/><path class="cls-24" d="M81.78,92.92c.37.56,1.39.53,1.39.53a6.61,6.61,0,0,1-1.35-2S81.4,92.36,81.78,92.92Z" transform="translate(-4.15 -3.88)"/><path class="cls-24" d="M81.28,96.11a2.88,2.88,0,0,0-.36,1.53,3.13,3.13,0,0,0,.7,1.12,2,2,0,0,0,0-1.27A7,7,0,0,1,81.28,96.11Z" transform="translate(-4.15 -3.88)"/><path class="cls-24" d="M80.56,95c-.25.57-.46,1.08-.46,1.08s1.14-.51,1.21-1.08a4.63,4.63,0,0,0,0-1.07A4.63,4.63,0,0,0,80.56,95Z" transform="translate(-4.15 -3.88)"/><path class="cls-24" d="M81.31,100.14a1.48,1.48,0,0,0,.42,1,1.79,1.79,0,0,0,1.13.31A5.67,5.67,0,0,1,81.31,100.14Z" transform="translate(-4.15 -3.88)"/><path class="cls-24" d="M85.37,84.46A5.73,5.73,0,0,0,85.11,86a4.31,4.31,0,0,0,.26,1.08,1.67,1.67,0,0,0,.4-1.33A8.53,8.53,0,0,0,85.37,84.46Z" transform="translate(-4.15 -3.88)"/><path class="cls-24" d="M84.68,84.45a6,6,0,0,1-.54,1s1.11,0,1.34-.66a3.49,3.49,0,0,0,0-1.61A5.37,5.37,0,0,0,84.68,84.45Z" transform="translate(-4.15 -3.88)"/><path class="cls-24" d="M94.45,86.8a1.9,1.9,0,0,0,1.21-.43,1.53,1.53,0,0,0,.4-.66,3.58,3.58,0,0,1-1.52.46A16.41,16.41,0,0,1,92,85.3c-1.22-.42-2.49-1.42-3-1.5a1.11,1.11,0,0,0-1.3.82,15.5,15.5,0,0,0,3.56,2.11,11.34,11.34,0,0,1,3.45,2.11A1.48,1.48,0,0,1,95,90a1,1,0,0,0,.85-.9,1.73,1.73,0,0,0-.27-1.21,1.94,1.94,0,0,0,1-.23,1.51,1.51,0,0,0,.51-.74,11.77,11.77,0,0,1-1.27.31A2.38,2.38,0,0,1,94.45,86.8Z" transform="translate(-4.15 -3.88)"/><path class="cls-24" d="M98.8,99.55c-2.74-2.91-3.51-2.47-3.51-2.47.34,1.59,4.13,4.58,6.36,6.63s2.77,2.28,3.28,2.1.34-.34-.54-1.25A69.93,69.93,0,0,1,98.8,99.55Z" transform="translate(-4.15 -3.88)"/><path class="cls-24" d="M98.62,56.1a2.29,2.29,0,0,0,1.66.47,6.5,6.5,0,0,0,1.23-.36,2,2,0,0,0-1.23-.36A16,16,0,0,0,98.62,56.1Z" transform="translate(-4.15 -3.88)"/><path class="cls-24" d="M97.09,56.1a3,3,0,0,0,1.29.12c.73-.08,1.29-1.06,1.29-1.06a5.52,5.52,0,0,0-1.56.34A3.4,3.4,0,0,0,97.09,56.1Z" transform="translate(-4.15 -3.88)"/><path class="cls-24" d="M102.56,54.47a3.61,3.61,0,0,0,1.5.31,1.59,1.59,0,0,0,1-.55l-1.1-.11A2.7,2.7,0,0,0,102.56,54.47Z" transform="translate(-4.15 -3.88)"/><path class="cls-24" d="M104.39,51.33c-.51.18-.84.92-.84.92a3.58,3.58,0,0,0,1.25-.38,1.06,1.06,0,0,0,.36-.89A3.92,3.92,0,0,1,104.39,51.33Z" transform="translate(-4.15 -3.88)"/><path class="cls-24" d="M106.74,51.61a2.34,2.34,0,0,0-.92.36,1.61,1.61,0,0,0,1,.28,1.54,1.54,0,0,0,.92-.64A3.72,3.72,0,0,0,106.74,51.61Z" transform="translate(-4.15 -3.88)"/><path class="cls-24" d="M86.13,53.78c-.36.41-.61.67-.61.67s.89,0,1.1-.34a4,4,0,0,0,.18-1.35A5.47,5.47,0,0,1,86.13,53.78Z" transform="translate(-4.15 -3.88)"/><path class="cls-24" d="M88.18,52.07a1.39,1.39,0,0,0,.86-.33,3.44,3.44,0,0,0,.64-1,8.14,8.14,0,0,0-1,.69A2.24,2.24,0,0,0,88.18,52.07Z" transform="translate(-4.15 -3.88)"/><path class="cls-24" d="M88.07,50.37a1.39,1.39,0,0,0-.71.35s.56.51,1,.26l1-.61A4.78,4.78,0,0,0,88.07,50.37Z" transform="translate(-4.15 -3.88)"/><path class="cls-24" d="M96.17,52.54a3,3,0,0,0,.68.86,1.54,1.54,0,0,0,1,.05,3.54,3.54,0,0,0-.85-.56Z" transform="translate(-4.15 -3.88)"/><path class="cls-24" d="M95.3,52.07a1.67,1.67,0,0,0-.13,1.11,1.29,1.29,0,0,0,.57.81,1.51,1.51,0,0,0,0-1Z" transform="translate(-4.15 -3.88)"/><path class="cls-24" d="M97.82,41.91a8.27,8.27,0,0,0-1.4,1.89,6.93,6.93,0,0,1,1.4.9,9.82,9.82,0,0,1,1.39,1.5,1.14,1.14,0,0,0,.46-.93A10.64,10.64,0,0,0,99,42.85C98.75,42,98.39,41.5,97.82,41.91Z" transform="translate(-4.15 -3.88)"/><path class="cls-24" d="M90.25,40.68a10.57,10.57,0,0,1,.16,2.38s.6-.67.82-.9,1.24,0,1.24,0a4.5,4.5,0,0,0-.82-1.8C90.83,39.71,90.1,40,90.25,40.68Z" transform="translate(-4.15 -3.88)"/><ellipse class="cls-2" cx="278.97" cy="188.99" rx="29.58" ry="16.65"/><path class="cls-2" d="M254.58,241.55c-5.74-2-15.57,1.32-28.28,8.18s-11.14,9.84-5,14.6,14.35,8.88,20,8.08,14.91-8,17.61-9.67,11.55-3.12,15.42-6.69S262.4,244.2,254.58,241.55Z" transform="translate(-4.15 -3.88)"/><path class="cls-2" d="M223.12,230.24c-7.61-4.37-22.12-7.2-26.74-6.54s-9.8,6-14.21,5.84-13.1-2.45-13.65-4.44-8.58-6.79-11.42-5.89-11.93,3.71-14.51,1.06-6.89-2.24-10-7c0,0-3.83-.47-6.58,1.22-2.12,1.31.16,3.05,2.24,2,2.67-1.39,8.25,3.41,9.73,7,1,2.45,1.92,8.56,5.64,13.28s9.59,6,15.26,10.13,11.25,6.7,20.86,8.06c2.37.34,6.29,1.68,8.26,3.66,2.63,2.64,4.91,6.09,9.85,6.78,8.63,1.22,7.95-5,11.42-6.78s1.73-6.27,1.6-8.26,1.9-5.89,7.14-8.81S230.74,234.61,223.12,230.24Z" transform="translate(-4.15 -3.88)"/><path class="cls-6" d="M190,184.89a59.15,59.15,0,0,0-4.24,5.57,16.61,16.61,0,0,1,3.31,2.85c1.74,1.9,2.26,2.54,2.26,2.54s4.76-1.58,6.55-3.43,2.58-6.89,2.58-6.89l-5.78-3.6C194.34,182.13,192.71,181.93,190,184.89Z" transform="translate(-4.15 -3.88)"/><path class="cls-18" d="M220.59,220.13a5.71,5.71,0,0,0-3.51,2.13v5.86s3.83,1.57,3.15,2.26c-3.15,3.21-2.38,3.9-1.61,4.46a4.15,4.15,0,0,0,3.63.5c2.7-.69,2.66-1.8,2.95-3.05a14.11,14.11,0,0,0-.53-8.45C223.89,221.63,222.69,219.77,220.59,220.13Z" transform="translate(-4.15 -3.88)"/><path class="cls-5" d="M222,225.54l-2,5.91s.52.13,1.37.41,1.21-.93,1.69-3.12A3.08,3.08,0,0,0,222,225.54Z" transform="translate(-4.15 -3.88)"/><path class="cls-21" d="M220,220.24s.5,1.36,1.67,1.52a3,3,0,0,1,2.25,1.9,11.31,11.31,0,0,1,1.24,5.57c-.14,2.34,0,4.08-1.24,5a3.27,3.27,0,0,1-3.92,0,2.62,2.62,0,0,0-2.3-.48s-.76,1.51,1.28,2.46,5.12-.39,6.2-2.85a9.52,9.52,0,0,0,.48-7.77C224.61,222.23,223.74,218.89,220,220.24Z" transform="translate(-4.15 -3.88)"/><path class="cls-7" d="M198.7,222.12l-13.21,5.33s-4.56,6.21-.89,8.16c2.1,1.12,4.48.4,9.2-1.25a43.74,43.74,0,0,0,8-4.2s1.25-1.5-.24-5.17C200.46,222.29,198.7,222.12,198.7,222.12Z" transform="translate(-4.15 -3.88)"/><path class="cls-7" d="M183.71,224.42c-.63,2.11-2.75,7.94-1.77,9.24,1.27,1.69,3.62,2.65,5.22,2.11,3.24-1.11,8.06-6.18,11.68-11.82a54.59,54.59,0,0,0,5.59-12.5l-13.78-.39S184.45,221.94,183.71,224.42Z" transform="translate(-4.15 -3.88)"/><path class="cls-7" d="M220.46,221.73c-2.36-1.71-5.31-.41-5.31-.41L203.57,235.2l3,10.33a16.63,16.63,0,0,0,9.34-6.63c2.15-3.17,6.35-10.7,6.35-10.7S223.67,224.07,220.46,221.73Z" transform="translate(-4.15 -3.88)"/><path class="cls-7" d="M195,217.38s-1,7.56,1.92,8.93c.69,4.69,2.52,12,3,13.49.63,2.11,2.15,4.46,3.66,5.07,2.64,1.08,4.05,1.07,5.81-1.42,2-2.79,3.68-8.41,3.61-15.12s-4.1-15.44-4.1-15.44Z" transform="translate(-4.15 -3.88)"/><path class="cls-4" d="M212.52,190.67c-.44-2.67-6.74-4.82-6.74-4.82s-5.25-2.9-9.65-1c0,0-3.69,1.34-5.36,8.1-.51,2.06-2.48,7.79-2,13.49.27,3.34-.2,3.68-1,5.36-1.08,2.3,0,2.48.37,4.14,0,0,7.39,8.92,14.5,6.83,4.12-1.22,8-2.19,9-5.47-.37-3.16-2.36-6.93-2.25-12.31C209.51,198.34,212.76,192.13,212.52,190.67Z" transform="translate(-4.15 -3.88)"/><path class="cls-26" d="M204.25,179.38,198.4,182l-.54,6.82s-.08,1.27.84,1.71a3.26,3.26,0,0,0,3.07-.79,10.75,10.75,0,0,0,3-4s-.34-1.7-.52-2.49A22.24,22.24,0,0,1,204.25,179.38Z" transform="translate(-4.15 -3.88)"/><path class="cls-6" d="M198.61,190.22c.07-1.31.29-2-.25-2.82s-2,.91-2,.91a15,15,0,0,1,.79,1.63c.19.54,1,2.23,1,2.23a17.62,17.62,0,0,0,2.14-1,10.93,10.93,0,0,0,2.34-2l-2.34-1.22A7.16,7.16,0,0,1,198.61,190.22Z" transform="translate(-4.15 -3.88)"/><path class="cls-6" d="M204.27,183.23c-.78,1.81-4,4.67-4,4.67a3,3,0,0,1,1,1.57,6.2,6.2,0,0,0,1,2.44s1.26-1.64,2.83-3.37c.75-.82,2.14-2.07,2.14-2.07a5.69,5.69,0,0,0-1.56-2.71A2.61,2.61,0,0,0,204.27,183.23Z" transform="translate(-4.15 -3.88)"/><path class="cls-6" d="M196.52,185.75a5.49,5.49,0,0,0-.37,1.21c-.23,1-.61,3-.61,3a1.73,1.73,0,0,0,1.49-.84,5.4,5.4,0,0,1,1.33-1.7l-.21-1.65Z" transform="translate(-4.15 -3.88)"/><path class="cls-10" d="M194.82,172.17c-3.82,5.25-.7,14.16,2.5,13.76,1.8-.22,5.87-1.71,7.73-4.52,2.09-3.16,1.81-7.77.43-9.65A6.46,6.46,0,0,0,194.82,172.17Z" transform="translate(-4.15 -3.88)"/><path class="cls-7" d="M204.27,168.15c-4.61-4.7-9,.11-10.11,1.49-1.61,1.93-1.45,3.51-1.45,5.27,1.86.93,3.13-.06,4.49-.8a2.87,2.87,0,0,1-1,1.71c1.46.87,5.17.36,6.63-.66a16.59,16.59,0,0,0,1.08,3c1.44.6.63.43,1,.83.64.64.15,2.4.15,2.4s2.39,0,3.58-3.58C210.07,173.56,209.84,167.81,204.27,168.15Z" transform="translate(-4.15 -3.88)"/><path class="cls-27" d="M203.14,178.9s1.1,2,1.22,2.29,2.62-1.52,1.68-3.1S203.14,178.9,203.14,178.9Z" transform="translate(-4.15 -3.88)"/><path class="cls-6" d="M190.15,213.9a7.5,7.5,0,0,0,2.66,3.44,12,12,0,0,0,5.05,1.8s-3-1.8-4.54-2.91Z" transform="translate(-4.15 -3.88)"/><path class="cls-6" d="M191.31,211.18a10.21,10.21,0,0,0,4.65,2.26,16.53,16.53,0,0,0,6.63-.6,39.47,39.47,0,0,0-5.39-1.07C195.09,211.59,191.31,211.18,191.31,211.18Z" transform="translate(-4.15 -3.88)"/><path class="cls-28" d="M134,211.09c0-2.11,1.54-4.55,2.52-5.74s-.13-2.75-2.17-.93a9.58,9.58,0,0,0-3.25,8.62c.84,4.21,5.17,6.24,8.61,7.2a24.4,24.4,0,0,1,10.46,5.9c1.78,1.79,2.2-4.27,2.2-4.27s-6.9-3.57-11-4.58C136.69,216.16,134,214,134,211.09Z" transform="translate(-4.15 -3.88)"/><path class="cls-13" d="M213.6,245c-1.63.22-2.28,2.27-3,2.27a26.77,26.77,0,0,0-3.47.33s-1.08,6.61.63,6.39,4.35-.33,4.68-1.73a11,11,0,0,1,1.84-4.66C215.44,246.07,215.22,244.77,213.6,245Z" transform="translate(-4.15 -3.88)"/><path class="cls-24" d="M209.72,210.29a3.24,3.24,0,0,0-1.5,3.75c.4,1.85.53,4.24-.33,4.92a10.27,10.27,0,0,0-1,1,3.3,3.3,0,0,1-.52.6,13.25,13.25,0,0,1-2.83,1.71c-2.1,1.1-8.94,2.8-10.45,3.57a11.28,11.28,0,0,0-4.42,4.09l6.32,8.95s2.66-5.76,5.35-7.68,9-5.91,11.21-8.6c1.79-2.13,2.09-4.49,1.79-7.67C212.92,211,212.22,209.29,209.72,210.29Z" transform="translate(-4.15 -3.88)"/><path class="cls-13" d="M207.29,218.55a2.88,2.88,0,0,1-.45,1.42,10.27,10.27,0,0,1,1-1c.86-.68.73-3.07.33-4.92a3.24,3.24,0,0,1,1.5-3.75l-.58.26C204.9,212.68,207.46,215.87,207.29,218.55Z" transform="translate(-4.15 -3.88)"/><polygon class="cls-13" points="198.93 214.09 198.93 214.09 198.93 214.09 198.93 214.09"/><path class="cls-24" d="M182.46,194.66c-1.13-.25-1.49-1.36-2.37-.8s-4.61,2.67-5.91,3.4-3.24,2.57-5,2.31a22,22,0,0,0,0,6.19c.27,3.27-2.33,6.37-2.33,6.37a29.68,29.68,0,0,1-6.8,1.45c-6.38,0-7.53,2.79-7.53,2.79l11.16,9.42s6.93-.36,11.16-3c4.05-2.58,4.05-6.69,3-10.92a103.67,103.67,0,0,0-3.32-10.39s5.54-2,8.42-5.17a6,6,0,0,0,1.43-2.16A3.14,3.14,0,0,1,182.46,194.66Z" transform="translate(-4.15 -3.88)"/><path class="cls-13" d="M179.27,192.77a52.87,52.87,0,0,1-8.85,5,2.46,2.46,0,0,0-1.25,1.83c1.77.26,3.86-1.66,5-2.31s5-2.85,5.91-3.4,1.24.55,2.37.8a3.14,3.14,0,0,0,1.92-.56,3.69,3.69,0,0,0,0-2C184.11,191,181.86,191,179.27,192.77Z" transform="translate(-4.15 -3.88)"/><path class="cls-28" d="M186,229.81l1.63,1.05s1.19-3.57,2.91-4.79,3-2.15,4.53-3.23a18.45,18.45,0,0,0-6.45,3.63C186.26,228.83,186,229.81,186,229.81Z" transform="translate(-4.15 -3.88)"/><path class="cls-28" d="M167.65,210.93c-.74,1.19-3.4,1.66-5.52,1.82a33.78,33.78,0,0,0-5,.95l3.17,1.32a37.93,37.93,0,0,0,4.63-.73,5.42,5.42,0,0,0,3.53-2.68c1-1.78.74-4.77.74-4.77A21.53,21.53,0,0,1,167.65,210.93Z" transform="translate(-4.15 -3.88)"/><path class="cls-5" d="M184.86,227.42c-1.63-.34-9.12-1.74-14.27-3s-5.25-6.74-8.62-9c-4.55-3-11.67-2.48-14.46,5-.72,1.93-.26,7,.23,9.59.65,3.4,8,12.56,18.93,17.32s18.79,2,22.16,5,5.44,6.09,11.6,3.58,5.81-8.83,1-13.55C195.72,236.86,196.64,229.83,184.86,227.42Z" transform="translate(-4.15 -3.88)"/><path class="cls-24" d="M156.81,239.23c-2.23-2.69-5.7-8.66-8-10.95-1.15-1.15.71,7,.71,7s4.87,4.28,7.65,6.32,7,4.5,7,4.5v-3S159,241.91,156.81,239.23Z" transform="translate(-4.15 -3.88)"/><path class="cls-24" d="M183.49,248.24c-3.68-.33-4.44,1.09-8.88-.59s-6.09,0-6.09,0a27.37,27.37,0,0,0,8,2.44c3.94.4,8.89.53,11.17,2.6a41.52,41.52,0,0,0,4.17,3.64c1.62,1.16,3.19-1.7,3.19-1.7l-4.55-3.44A15.44,15.44,0,0,0,183.49,248.24Z" transform="translate(-4.15 -3.88)"/><path class="cls-24" d="M149.41,213.67c0-.12,0-.23,0-.35-1.94,1.66-5.31,2.53-6.71,3.51-1.94,1.38-2.11,2.85-4.79,4.47a3.59,3.59,0,0,1-4-.07,1.7,1.7,0,0,0,.17.23c2.16,2.65,8.45-1.19,8.45-1.19s-1.52,6.39,1.4,11.91,6.52,6.48,8.35,4.92c-1.6-1.85-2.79-4.38-3.69-9.68S149.09,215.2,149.41,213.67Z" transform="translate(-4.15 -3.88)"/><path class="cls-14" d="M145.73,211.06c-3.45,2-4.94,3.47-8.24,4.77s-5.67,2.56-3.52,5.4a3.59,3.59,0,0,0,4,.07c2.68-1.62,2.85-3.09,4.79-4.47,1.4-1,4.77-1.85,6.71-3.51C149.86,210.56,148,209.73,145.73,211.06Z" transform="translate(-4.15 -3.88)"/><path class="cls-24" d="M207,243.45c.22-1.2.56-2.72.61-3.58.1-2.19.86-5.74-.76-6.17s-3.58-1-5.09,0-3,4.37-4.55,6.61c-3.58,1.63-6.61,3.46-7.44,7.73-1.2,6.23,1.33,8.46,6.35,10.78,5.64,2.6,11-.21,12.8-5.74a7.55,7.55,0,0,0-2.12-8.11A8.89,8.89,0,0,1,207,243.45Z" transform="translate(-4.15 -3.88)"/><path class="cls-24" d="M178.05,230.67c-1.76-1.54-6.88-5.79-9-1.63,0,1.22.71,2.09,2.23,3,2.92,1.71,1.77,2.65,1.77,2.65s-7.63,1.58-9.66,3-2.27,3.83-.78,7.48c1.09,2.68,3.4,3.7,5.42,4.84s7.59,2,8.55.09c.8-1.55-5.56-8.05-5.56-8.05s7.28-3.06,8.31-5.2S180.76,233,178.05,230.67Z" transform="translate(-4.15 -3.88)"/><path class="cls-14" d="M171.25,232c-1.52-.89-2.23-1.76-2.23-3a6.86,6.86,0,0,0-.34.76c-.56,1.6.39,2.38,1.74,3.35a16.12,16.12,0,0,0,2.6,1.52S174.17,233.73,171.25,232Z" transform="translate(-4.15 -3.88)"/><path class="cls-13" d="M206.87,233.16a18.52,18.52,0,0,0-3.35,0s-.81,1.45,0,2.31c.49.53,1.42,1.6,2.46,1.21.85-.31,1.75-1.75,1.75-1.75S207.72,233.35,206.87,233.16Z" transform="translate(-4.15 -3.88)"/><path class="cls-13" d="M201.78,252.79c-3.29-.84-2.54,3.81-2.54,3.81a7.2,7.2,0,0,0-4.36,1.13,3.82,3.82,0,0,0-1.77,3.61c0,1.09,2.17.55,3.36.76s6,2.17,6.48,1.08.44-2.27.5-5.45S203,253.1,201.78,252.79Z" transform="translate(-4.15 -3.88)"/><path class="cls-28" d="M148.57,219.09s-1.51,4.64-1.36,6.46,2.92,4.26,2.92,4.26a18.68,18.68,0,0,1-1.7-5.36A34.58,34.58,0,0,1,148.57,219.09Z" transform="translate(-4.15 -3.88)"/><path class="cls-28" d="M207,243.45a6.79,6.79,0,0,0-.2,2.14,2.44,2.44,0,0,0,1.31,1,3.64,3.64,0,0,0-.44-1.19A7,7,0,0,1,207,243.45Z" transform="translate(-4.15 -3.88)"/><path class="cls-28" d="M198.8,246.8c-1.19,1.81.94,3.38.94,3.38s1.93.4,2.64-.88c1.14-2-.68-3.9-.68-3.9A2.84,2.84,0,0,0,198.8,246.8Z" transform="translate(-4.15 -3.88)"/><path class="cls-7" d="M199.77,247.08a1.73,1.73,0,0,0,.46,2.21,1.61,1.61,0,0,0,1.55-.94,2.15,2.15,0,0,0-.4-2.24A1.78,1.78,0,0,0,199.77,247.08Z" transform="translate(-4.15 -3.88)"/><path class="cls-28" d="M200,247.4a1,1,0,0,0,.21,1.26s-.31-1,1-1.53A.82.82,0,0,0,200,247.4Z" transform="translate(-4.15 -3.88)"/><path class="cls-24" d="M201,247.55a.37.37,0,0,0,0,.52.37.37,0,0,0,.51.1.36.36,0,0,0,0-.51A.37.37,0,0,0,201,247.55Z" transform="translate(-4.15 -3.88)"/><path class="cls-28" d="M204.67,247.86a2.25,2.25,0,0,1,0,1.26c-.21.69-.53,1.5-.53,1.5s1.15-.4,1.29-1.38A1.36,1.36,0,0,0,204.67,247.86Z" transform="translate(-4.15 -3.88)"/><path class="cls-10" d="M196.72,211.73c-3.66,3.2-7.44,8.41-10.12,11.33s-4.92,4.74-5.67,7.79c-.9,3.64,1.39,4.61,4.55,3s3.56-5.41,5.2-7.55,9-7.49,11.48-11.33,7.64-12.09,7.64-12.09l-5.1-4.52S199.51,207.57,196.72,211.73Z" transform="translate(-4.15 -3.88)"/><path class="cls-26" d="M186.39,190.78l-5.89,8.92c-1.32,2-4.93,12.35-5.91,16.75-2.85,4.4-4,6.37-4.06,8.81s3.55,3.88,6-.43c1.11-2,1.78-5.83,2.1-7.15s5.95-11.06,7-13.2a30.05,30.05,0,0,1,3.53-4.93,43.9,43.9,0,0,1,1.18-5.06A9.34,9.34,0,0,0,186.39,190.78Z" transform="translate(-4.15 -3.88)"/><path class="cls-10" d="M217.69,203.92s-2.4,8.9-2.93,11.35c-.14.67-.83,3.89-1.15,7-.19,1.87-1.14,3.65-1.85,5.57a7.2,7.2,0,0,0,.19,6.07c1.2,2,2.53,1.44,3.69-.12a9.1,9.1,0,0,0,1.44-5,38.47,38.47,0,0,0-.3-4c0-.79,3.43-6.44,4.31-8.41s3-4.73,3.72-8.49C225.42,204.86,217.69,203.92,217.69,203.92Z" transform="translate(-4.15 -3.88)"/><polygon class="cls-22" points="213.28 201.02 220.66 203.97 221.32 202.38 213.53 199.47 213.28 201.02"/><path class="cls-21" d="M220.5,193.51c-1.25,1.88-2.4,6.48-2.81,9.83l7.35,2.92s3.78-2.54,5-3.25-1.49-14-1.49-14S223.86,188.44,220.5,193.51Z" transform="translate(-4.15 -3.88)"/><path class="cls-16" d="M234.19,186.61c-2,.09-6.27,5.55-6.27,5.55s-1.66,6.1-1.36,8.14,4.23,5.83,4.23,5.83,4.38,1.76,7.69-1.16,2.23-12.81,2.23-12.81A19.07,19.07,0,0,1,234.19,186.61Z" transform="translate(-4.15 -3.88)"/><path class="cls-10" d="M269.63,239.75a3.29,3.29,0,0,0-3.34,1.07,7.85,7.85,0,0,1-2.52,1.73c-1.66.86-7.91,4-13.54,6.82l-10.44,5.25s4.41,12.61,5.83,12.89,3.94-2.9,8.14-7.15c3.3-3.34,9.87-8.63,12.75-11.45a15.15,15.15,0,0,1-.52,3c-.53,1.52-.89,4.2,2.67,3.09,2.1-.66,3.27-2.19,2.92-3.82s.23-4.95.35-7S270.89,240,269.63,239.75Z" transform="translate(-4.15 -3.88)"/><path class="cls-7" d="M272,242.52c0-2.72-1.65-3.3-2.8-3.3a3.52,3.52,0,0,0-2.94,1.6c.16-.14,3.25-.27,4,1.1.87,1.62-.17,4,.12,5.94.15,1-.23,3.62-1.09,4.54a3.21,3.21,0,0,1-2.58,1c-1,0-.72-1.49-.72-1.49a25.86,25.86,0,0,0-2,3.09c-.63,1.25.4,2.07,2.47,2.32a5,5,0,0,0,4.51-1.82,6.11,6.11,0,0,0,1.52-4.84C272.33,248.22,272,244.87,272,242.52Z" transform="translate(-4.15 -3.88)"/><path class="cls-17" d="M251.21,220.9,232.8,227s-5,8.2-9.59,16.22-4.3,14.29-2.55,16.37,13.67,7.63,15.55,8.5c6.76,3.13,10.11.59,14-5.75,1.8-3,8.72-18.1,7.42-28.85C256.21,222,251.21,220.9,251.21,220.9Z" transform="translate(-4.15 -3.88)"/><path class="cls-18" d="M247.4,206.55c-1-2.88,3-8.85-3-12.49a44.51,44.51,0,0,0-4.25-2.36c-1.76,1.87-2.43,4.72-5.29,7.38-4.53,4.22-8.31.59-7.83-1.16l2.39-8.71s-4.63,8.38-5.45,11.84c-.55,2.31-.35,5.73,4,10.36,1.87,2,3.44,6.47,5,9.77.81,1.76-.43,5.58-1.22,7.56,4.56,2.65,20.24,1.38,22.09-6-1.2-2.73-3-4.47-3.86-5.69C248.54,215.08,248,208.2,247.4,206.55Z" transform="translate(-4.15 -3.88)"/><path class="cls-10" d="M224.11,179c-2.83,3.94.24,15.71,5.24,15.78,3.25,0,7.29-3.41,8.1-9.18C238.12,180.79,229.46,171.57,224.11,179Z" transform="translate(-4.15 -3.88)"/><path class="cls-7" d="M245.05,173.51c-.68-2.92-3.87-2.26-3.87-2.26s1.37-2.79-.53-3.73c-1.12-.56-2.66.38-2.66.38s-1.66-1.45-3.09-1-2,3.49-2,3.49a3.31,3.31,0,0,0-3.49.5c-1.91,1.39-1.27,5.42-1.27,5.42s9.79,5.77,10,6.17,3.35-.91,4.07-3.15c1.29.65.82,2.65.82,2.65a3.93,3.93,0,0,0,1.53-1.86c.27-1-1-2.64-1-2.64s2.1.15,2.78-.9C245.41,176,245.5,175.43,245.05,173.51Z" transform="translate(-4.15 -3.88)"/><path class="cls-17" d="M237.67,177.52c-.47-2.13-1.93-2.35-3.26-2.15-1-1.5-2.6-1.21-4.13-1a17.58,17.58,0,0,0-6.19,2.53c-2.55,1.65-1.1,5.25-1.1,5.25a17.68,17.68,0,0,0,9.52,0,7.67,7.67,0,0,1,1.73,2.64c2.47-2.12,3.21.85,1.92,2.72-.33.81.43,1.87.43,1.87s3.77-4,2.4-8.83A3.67,3.67,0,0,0,237.67,177.52Z" transform="translate(-4.15 -3.88)"/><path class="cls-17" d="M254.58,249.74c-1-.58-13.85,18.12-13.85,18.12s-.34,1.6,1.11,1.58,5.85-1.47,7.68-3.36,5.29-5.72,6.34-6.5,2.87-2.18,2.87-2.18a7.76,7.76,0,0,0-.61-3.8A8.67,8.67,0,0,0,254.58,249.74Z" transform="translate(-4.15 -3.88)"/><path class="cls-10" d="M253.13,210.73c-1.06-3.63-7.47,3.06-7.47,3.06l1.73,2.73s-12.81,8.14-15.22,8.67-5.16.77-6.72,1.48-1.74,1.19-1,1.43a4.6,4.6,0,0,0,2.55,0c.59-.24,1.19.36.23.84a32.38,32.38,0,0,0-4.25,3.55c-1.2,1.07-1,3,.73,3s5.58-.87,7-3.13,2-3.11,3.14-3.58,6.51-1.29,10.67-2.71,8.59-4.08,9.55-5.33a4.8,4.8,0,0,0,.45-3A31.17,31.17,0,0,0,253.13,210.73Z" transform="translate(-4.15 -3.88)"/><path class="cls-21" d="M244.37,194.06c-2.83-.24-5,5-4.7,10.34.24,4.42,6,9.39,6,9.39l7.34-5.11s-.87-6.39-2.83-10.26A8.2,8.2,0,0,0,244.37,194.06Z" transform="translate(-4.15 -3.88)"/><polygon class="cls-22" points="240.72 209.14 242.01 210.67 249.07 206.79 248.84 204.8 240.72 209.14"/><path class="cls-6" d="M207.76,189.27c-2.59,2-5.6,11-5.6,11a10.87,10.87,0,0,1,4.58,1.66,21.8,21.8,0,0,1,2.92,3.4,30.06,30.06,0,0,0,3.38-4.72c1.43-3.09,2.23-5.56,1.48-8.41S210.34,187.28,207.76,189.27Z" transform="translate(-4.15 -3.88)"/><path class="cls-21" d="M308.94,186.75c-2.89-6.53-13.35-11.38-25.86-11.38s-23,4.86-25.86,11.41L255,184.84s-.82,7.86,3.83,11.79a.1.1,0,0,0,.05,0c4.23,5.15,13.47,8.73,24.2,8.73s20.15-3.64,24.33-8.87c4.52-4,3.72-11.69,3.72-11.69Z" transform="translate(-4.15 -3.88)"/><ellipse class="cls-18" cx="278.93" cy="180.97" rx="28.09" ry="15.81"/><ellipse class="cls-29" cx="278.93" cy="178.82" rx="23.96" ry="13.49"/><path class="cls-18" d="M283.08,177.87c-4.5,0-8.16,2.06-8.16,4.6s3.66,4.59,8.16,4.59,8.17-2.06,8.17-4.59S287.59,177.87,283.08,177.87Z" transform="translate(-4.15 -3.88)"/><path class="cls-21" d="M283.08,180.76c-1.9,0-3.45.87-3.45,1.94s1.55,1.94,3.45,1.94,3.46-.87,3.46-1.94S285,180.76,283.08,180.76Z" transform="translate(-4.15 -3.88)"/><path class="cls-18" d="M293.67,175.54a12.51,12.51,0,0,0-6.16,4.3l.61,2a20.34,20.34,0,0,1,4.32-3.09c3.38-2,9.09-2.73,9.09-2.73A16.12,16.12,0,0,0,293.67,175.54Z" transform="translate(-4.15 -3.88)"/><path class="cls-18" d="M295.52,184.33a15.74,15.74,0,0,0-7.24-.78l-.77.9s3.85.79,7,1.57a21.4,21.4,0,0,1,6.38,3.2A9.89,9.89,0,0,0,295.52,184.33Z" transform="translate(-4.15 -3.88)"/><path class="cls-18" d="M271.65,175.54a16.12,16.12,0,0,0-7.86.47s5.71.69,9.1,2.73a20.39,20.39,0,0,1,4.31,3.09l.61-2A12.51,12.51,0,0,0,271.65,175.54Z" transform="translate(-4.15 -3.88)"/><path class="cls-18" d="M269.81,184.33a9.93,9.93,0,0,0-5.39,4.89,21.4,21.4,0,0,1,6.38-3.2c3.16-.78,7-1.57,7-1.57l-.77-.9A15.7,15.7,0,0,0,269.81,184.33Z" transform="translate(-4.15 -3.88)"/><path class="cls-18" d="M280.58,190.31a6.86,6.86,0,0,0,1.54,4,6.6,6.6,0,0,0,2-4.93V186l-3.08-.15A15.57,15.57,0,0,0,280.58,190.31Z" transform="translate(-4.15 -3.88)"/><path class="cls-18" d="M283.35,171.38a6.65,6.65,0,0,0-1.48,2.65,11.7,11.7,0,0,0,0,4.78l2.23-.07a23.19,23.19,0,0,0,.6-3.64C284.76,171.92,283.35,171.38,283.35,171.38Z" transform="translate(-4.15 -3.88)"/><path class="cls-22" d="M196.11,142.39c0-.1-.05-.19-.08-.29l-1.2-4.14-2.56.94c-2.92-1.25-6.79-1.27-9.09.06L175,143.69l-2.94-1.5c0,.15-.83,3.64-1.09,4.74a2.82,2.82,0,0,0-.07.31v0h0c-.18,1.24.64,2.59,2.43,3.62l.46.26c3,1.72,7.51,1.91,10.08.42l10.59-6.11a2.81,2.81,0,0,0,1.66-3.08Z" transform="translate(-4.15 -3.88)"/><path class="cls-18" d="M192.62,135.29l-.42-.24c-2.67-1.54-6.76-1.71-9.08-.38l-9.53,5.51c-2.32,1.34-2,3.69.65,5.24l.42.24c2.67,1.54,6.76,1.71,9.07.38l9.54-5.51C195.59,139.19,195.29,136.83,192.62,135.29Z" transform="translate(-4.15 -3.88)"/><path class="cls-22" d="M178.67,139.82c-2.94,0-5.32,1.34-5.32,3a2.53,2.53,0,0,0,1.41,2,8.37,8.37,0,0,1,7.82,0,2.53,2.53,0,0,0,1.41-2C184,141.16,181.61,139.82,178.67,139.82Z" transform="translate(-4.15 -3.88)"/><path class="cls-21" d="M174.76,144.84a8.44,8.44,0,0,0,7.82,0,8.37,8.37,0,0,0-7.82,0Z" transform="translate(-4.15 -3.88)"/><path class="cls-22" d="M187.42,134.83c-2.94,0-5.32,1.34-5.32,3a2.53,2.53,0,0,0,1.41,2,8.37,8.37,0,0,1,7.82,0,2.53,2.53,0,0,0,1.41-2C192.74,136.17,190.36,134.83,187.42,134.83Z" transform="translate(-4.15 -3.88)"/><path class="cls-21" d="M183.51,139.85a8.44,8.44,0,0,0,7.82,0,8.37,8.37,0,0,0-7.82,0Z" transform="translate(-4.15 -3.88)"/><polygon class="cls-5" points="182.09 143.8 182.36 144.84 188.18 141.48 187.91 140.44 182.09 143.8"/></svg>