<?xml version="1.0" encoding="utf-8"?>
<!-- Generator: Adobe Illustrator 25.0.1, SVG Export Plug-In . SVG Version: 6.00 Build 0)  -->
<svg version="1.1" id="Capa_1" xmlns="http://www.w3.org/2000/svg" xmlns:xlink="http://www.w3.org/1999/xlink" x="0px" y="0px"
	 viewBox="0 0 30 18" style="enable-background:new 0 0 30 18;" xml:space="preserve">
<style type="text/css">
	.st0{fill:#F6FAFD;}
</style>
<g>
	<path class="st0" d="M1.1,17.5l12-14.4c0.5-0.6,1.2-0.9,1.9-0.9c0.7,0,1.4,0.3,1.9,0.9l12,14.4H1.1z"/>
	<path class="st0" d="M15,2.7c0.6,0,1.1,0.3,1.5,0.7L27.9,17H2.1L13.5,3.4C13.9,2.9,14.4,2.7,15,2.7 M15,1.7c-0.8,0-1.7,0.4-2.3,1.1
		L0,18h30L17.3,2.7C16.7,2,15.8,1.7,15,1.7L15,1.7z"/>
</g>
</svg>
