<?xml version="1.0" encoding="utf-8"?>
<!-- Generator: Adobe Illustrator 25.0.1, SVG Export Plug-In . SVG Version: 6.00 Build 0)  -->
<svg version="1.1" id="Capa_1" xmlns="http://www.w3.org/2000/svg" xmlns:xlink="http://www.w3.org/1999/xlink" x="0px" y="0px"
	 viewBox="0 0 1000 1000" style="enable-background:new 0 0 1000 1000;" xml:space="preserve">
<style type="text/css">
	.st0{fill:#FDE88F;}
	.st1{fill:#FC990B;}
	.st2{fill-rule:evenodd;clip-rule:evenodd;fill:#FC990B;}
	.st3{fill:#F57E00;}
</style>
<circle id="Elipse_1" class="st0" cx="500" cy="500" r="500"/>
<circle id="Palma" class="st1" cx="505.5" cy="578.1" r="132.5"/>
<circle id="Dedo_copia_2" class="st1" cx="595" cy="351.6" r="85"/>
<circle id="Dedo_copia_2-2" class="st1" cx="747" cy="487.6" r="85"/>
<circle id="Dedo_copia_3" class="st1" cx="405.5" cy="351.6" r="85"/>
<path id="Dedo_copia_3-2" class="st2" d="M253.5,402.6c46.9,0,85,38.1,85,85s-38.1,85-85,85s-85-38.1-85-85S206.6,402.6,253.5,402.6
	L253.5,402.6z"/>
<path class="st3" d="M770.2,169.4c2.9-2.3,91.5,75,136.3,163.3c80.6,159,35.1,385.5-97.5,507.6c-102.9,94.8-231.9,102.3-266.2,93
	c-15.5-4.2-26.3-14.2-26.3-14.2c-18.8-21.1-25.3-52.1-18.6-77.3c1.3-4.9,4.3-14.4,11-24.2c33.4-49.4,135-72.7,198.5-101.6
	c33.4-15.1,95.5-43.3,132.3-100.7c92.1-143.7-29.7-384.9-61.1-431.6C776.3,180.4,769.3,170.2,770.2,169.4z"/>
<path class="st3" d="M228.9,169.8c-2.9-2.3-91.5,75-136.3,163.3C12,492.1,57.4,718.6,190,840.7c102.9,94.8,231.9,102.3,266.2,93
	c15.5-4.2,26.3-14.2,26.3-14.2c18.8-21.1,25.3-52.1,18.6-77.3c-1.3-4.9-4.3-14.4-11-24.2c-33.4-49.4-135-72.7-198.5-101.6
	c-33.4-15.1-95.5-43.3-132.3-100.7C67.2,472.1,189,230.9,220.4,184.2C222.8,180.7,229.8,170.5,228.9,169.8z"/>
</svg>
