<svg id="Capa_1" enable-background="new 0 0 512 512" height="512" viewBox="0 0 512 512" width="512" xmlns="http://www.w3.org/2000/svg"><g><g><g><g><g><g><g><g><g><g><g><g><g><g><g><path d="m453.286 413.186v-329.284h-407.41l-9.272 9.272v320.013c0 11.159 9.046 20.205 20.205 20.205h376.271c11.159-.001 20.206-9.047 20.206-20.206z" fill="#eaf2ff"/><path d="m512 413.186v-320.012l-9.272-9.272h-57.595v329.284c0 11.159-9.046 20.205-20.205 20.205h66.866c11.16 0 20.206-9.046 20.206-20.205z" fill="#dbe8f9"/><path d="m453.286 32.652c0-11.159-9.046-20.205-20.205-20.205h-376.272c-11.159 0-20.205 9.046-20.205 20.205v60.522h416.681v-60.522z" fill="#9bc4f9"/></g></g></g></g></g></g></g></g></g></g><g><g><g><g><g><g><g><g><g><g><path d="m491.795 12.447h-66.866c11.159 0 20.205 9.046 20.205 20.205v60.522h66.866v-60.522c0-11.159-9.046-20.205-20.205-20.205z" fill="#7fb2f9"/></g></g></g></g></g></g></g></g></g></g><g><g><path d="m323.854 62.262h-232.836c-4.268 0-7.726-3.459-7.726-7.726s3.459-7.726 7.726-7.726h232.836c4.268 0 7.726 3.459 7.726 7.726s-3.458 7.726-7.726 7.726z" fill="#f2f9ff"/></g><g fill="#f2f9ff"><circle cx="390.886" cy="52.81" r="7.758"/><circle cx="424.658" cy="52.81" r="7.758"/><circle cx="458.431" cy="52.81" r="7.758"/></g></g></g></g><g><path d="m315.529 313.372c22.935-22.935 31.142-55.02 24.623-84.505-1.748-7.906-11.603-10.706-17.328-4.98l-43.933 43.933c-13.022 13.022-34.135 13.022-47.157 0-13.022-13.022-13.022-34.135 0-47.157l43.933-43.933c5.725-5.725 2.926-15.58-4.98-17.328-29.485-6.519-61.57 1.687-84.505 24.623-16.548 16.548-25.428 37.86-26.642 59.521-.039.701-.12 1.586-.235 2.622-2.488 22.483-12.687 43.412-28.682 59.407l-117.501 117.5c-17.495 17.495-17.495 45.861 0 63.356 17.495 17.495 45.861 17.495 63.356 0l117.501-117.501c15.995-15.995 36.924-26.194 59.407-28.682 1.036-.115 1.921-.195 2.622-.234 21.661-1.214 42.973-10.093 59.521-26.642z" fill="#ffd064"/><path d="m38.103 461.45c-6.031-6.031-6.031-15.809 0-21.84l115.581-115.581c6.031-6.031 15.809-6.031 21.84 0 6.031 6.031 6.031 15.809 0 21.84l-115.581 115.581c-6.031 6.031-15.809 6.031-21.84 0z" fill="#ffe07d"/></g><g><path d="m472.681 189.686h-98.21c-4.268 0-7.726-3.459-7.726-7.726s3.459-7.726 7.726-7.726h98.21c4.268 0 7.726 3.459 7.726 7.726s-3.458 7.726-7.726 7.726z" fill="#9bc4f9"/></g><g><path d="m424.658 269.006h-50.187c-4.268 0-7.726-3.459-7.726-7.726s3.459-7.726 7.726-7.726h50.187c4.268 0 7.726 3.459 7.726 7.726s-3.458 7.726-7.726 7.726z" fill="#9bc4f9"/></g><g><path d="m472.681 229.346h-98.21c-4.268 0-7.726-3.459-7.726-7.726 0-4.268 3.459-7.726 7.726-7.726h98.21c4.268 0 7.726 3.459 7.726 7.726s-3.458 7.726-7.726 7.726z" fill="#9bc4f9"/></g></g></g><g fill="#7fb2f9"><path d="m472.681 174.233h-27.547v15.453h27.547c4.268 0 7.726-3.459 7.726-7.726s-3.458-7.727-7.726-7.727z"/><path d="m480.407 221.62c0-4.268-3.459-7.726-7.726-7.726h-27.547v15.453h27.547c4.268-.001 7.726-3.46 7.726-7.727z"/></g></g></svg>